<svg xmlns="http://www.w3.org/2000/svg" width="100%" height="100%" viewBox="0 0 24 24" fill="none">
  <path fill-rule="evenodd" clip-rule="evenodd" d="M12 4C7.58172 4 4 7.58172 4 12C4 16.4183 7.58172 20 12 20C16.4183 20 20 16.4183 20 12C20 7.58172 16.4183 4 12 4ZM2 12C2 6.47715 6.47715 2 12 2C17.5228 2 22 6.47715 22 12C22 17.5228 17.5228 22 12 22C6.47715 22 2 17.5228 2 12Z" fill="#2C2C35"/>
  <path fill-rule="evenodd" clip-rule="evenodd" d="M12 7.4C12.5523 7.4 13 7.84771 13 8.4V15.6C13 16.1523 12.5523 16.6 12 16.6C11.4477 16.6 11 16.1523 11 15.6V8.4C11 7.84771 11.4477 7.4 12 7.4Z" fill="#2C2C35"/>
  <path fill-rule="evenodd" clip-rule="evenodd" d="M7.4 12C7.4 11.4477 7.84771 11 8.4 11H15.6C16.1523 11 16.6 11.4477 16.6 12C16.6 12.5523 16.1523 13 15.6 13H8.4C7.84771 13 7.4 12.5523 7.4 12Z" fill="#2C2C35"/>
</svg>