<svg width="185" height="113" viewBox="0 0 185 113" fill="none" xmlns="http://www.w3.org/2000/svg">
<g clip-path="url(#clip0_725_3138)">
<path d="M141.64 111.722C139.272 109.678 137.833 106.448 138.21 103.303C138.588 100.159 140.924 97.268 143.955 96.6003C146.987 95.9325 150.442 97.7809 151.363 100.806C151.869 94.9737 152.453 88.897 155.488 83.9302C158.237 79.4328 162.997 76.2148 168.155 75.6391C173.314 75.0634 178.745 77.2378 181.963 81.3977C185.18 85.5576 185.968 91.6053 183.715 96.3812C182.055 99.8995 178.996 102.518 175.792 104.648C165.438 111.473 153.02 114.249 140.822 112.464L141.64 111.722Z" fill="#F2F2F2"/>
<path d="M176.862 77.3581C172.605 80.9003 168.7 84.8619 165.203 89.1857C159.731 95.9293 155.302 103.49 152.072 111.605C151.836 112.197 152.776 112.454 153.01 111.869C158.295 98.681 166.732 87.0574 177.55 78.061C178.035 77.6569 177.343 76.9573 176.862 77.3581Z" fill="white"/>
<path d="M59.5545 111.166C62.8076 108.358 64.7836 103.921 64.2654 99.6025C63.7472 95.2835 60.5376 91.3131 56.3743 90.3959C52.211 89.4788 47.4651 92.0176 46.2005 96.1726C45.5046 88.1619 44.7026 79.8155 40.5339 72.9936C36.7592 66.8165 30.2214 62.3966 23.1359 61.6058C16.0504 60.8151 8.59021 63.8016 4.17123 69.5153C-0.24775 75.2289 -1.32972 83.5354 1.76522 90.0951C4.04515 94.9275 8.2456 98.5238 12.6466 101.45C26.6874 110.784 44.1049 114.677 60.678 112.185" fill="#F2F2F2"/>
<path d="M11.178 63.9673C17.0245 68.8325 22.388 74.2738 27.1909 80.2125C31.9946 86.1452 36.2238 92.5398 39.819 99.3067C41.8286 103.103 43.6338 107.008 45.2266 111.005C45.5514 111.818 44.2591 112.172 43.9379 111.368C41.1166 104.321 37.6261 97.5739 33.5165 91.2229C29.4268 84.8949 24.746 78.9871 19.5397 73.5826C16.595 70.5272 13.4881 67.6396 10.2331 64.9328C9.56587 64.3777 10.5164 63.4168 11.178 63.9673Z" fill="white"/>
<path d="M132.796 112.753H55.1807V31.3926C55.1807 14.0826 68.9647 0 85.9076 0H102.069C119.012 0 132.796 14.0826 132.796 31.3926V112.753Z" fill="#F2F2F2"/>
<path d="M116.635 112.753H55.1808V31.3927C55.1638 24.7599 57.2196 18.2948 61.0488 12.9386C61.19 12.742 61.3308 12.548 61.476 12.3561C63.3281 9.87425 65.5323 7.68853 68.0157 5.87107C68.1559 5.76679 68.2968 5.66433 68.4397 5.56185C70.5177 4.09268 72.7655 2.89167 75.1321 1.98614C75.2726 1.93172 75.4157 1.87719 75.5587 1.8249C77.699 1.04455 79.9177 0.510019 82.1737 0.231168C82.3136 0.211648 82.4572 0.196374 82.6008 0.181099C84.7993 -0.0590642 87.0167 -0.0590642 89.2152 0.181099C89.3584 0.196374 89.502 0.211646 89.6435 0.231377C91.8989 0.510246 94.117 1.04471 96.2568 1.82491C96.3999 1.8772 96.543 1.93173 96.6839 1.98625C99.0213 2.88036 101.243 4.06345 103.299 5.50914C103.441 5.60938 103.584 5.71185 103.725 5.81432C105.117 6.82948 106.425 7.96042 107.634 9.1956C108.604 10.1863 109.508 11.2424 110.34 12.3568C110.485 12.548 110.626 12.742 110.766 12.9383C114.596 18.2945 116.652 24.7598 116.635 31.3927V112.753Z" fill="#CCCCCC"/>
<path d="M111.638 76.3631C113.517 76.3631 115.04 74.8069 115.04 72.8871C115.04 70.9674 113.517 69.4111 111.638 69.4111C109.759 69.4111 108.235 70.9674 108.235 72.8871C108.235 74.8069 109.759 76.3631 111.638 76.3631Z" fill="#8D8D8D"/>
<path d="M126.438 110.315H123.831L122.591 100.042L126.439 100.042L126.438 110.315Z" fill="#FFB8B8"/>
<path d="M121.968 109.555H126.996V112.789H118.803C118.803 112.364 118.885 111.944 119.044 111.551C119.203 111.159 119.436 110.802 119.73 110.502C120.024 110.202 120.373 109.963 120.757 109.801C121.141 109.638 121.553 109.555 121.968 109.555Z" fill="#2F2E41"/>
<path d="M139.409 110.315H136.802L135.562 100.042L139.409 100.042L139.409 110.315Z" fill="#FFB8B8"/>
<path d="M134.94 109.555H139.968V112.789H131.774C131.774 112.364 131.856 111.944 132.015 111.551C132.174 111.159 132.408 110.802 132.702 110.502C132.996 110.202 133.345 109.963 133.729 109.801C134.113 109.638 134.524 109.555 134.94 109.555Z" fill="#2F2E41"/>
<path d="M113.36 73.5763C113.173 73.294 113.048 72.9732 112.995 72.6363C112.942 72.2994 112.962 71.9548 113.053 71.6266C113.145 71.2985 113.305 70.9948 113.524 70.737C113.743 70.4792 114.014 70.2735 114.319 70.1344L123.181 45.1797L127.542 47.611L117.423 71.4587C117.618 71.9976 117.613 72.5907 117.408 73.1257C117.203 73.6607 116.813 74.1004 116.312 74.3614C115.812 74.6224 115.234 74.6867 114.69 74.542C114.146 74.3973 113.673 74.0537 113.36 73.5763Z" fill="#FFB8B8"/>
<path d="M138.077 78.2647C137.788 78.095 137.538 77.8624 137.346 77.5834C137.153 77.3045 137.023 76.9858 136.965 76.6499C136.906 76.314 136.92 75.9691 137.006 75.6394C137.092 75.3097 137.248 75.0032 137.462 74.7416L134.717 48.3438L139.679 48.5754L140.82 74.5412C141.227 74.9383 141.476 75.4739 141.522 76.0464C141.567 76.619 141.406 77.1887 141.068 77.6477C140.73 78.1067 140.238 78.423 139.687 78.5367C139.136 78.6504 138.563 78.5536 138.077 78.2647Z" fill="#FFB8B8"/>
<path d="M130.16 40.5565C133.045 40.5565 135.383 38.1676 135.383 35.2206C135.383 32.2737 133.045 29.8848 130.16 29.8848C127.276 29.8848 124.938 32.2737 124.938 35.2206C124.938 38.1676 127.276 40.5565 130.16 40.5565Z" fill="#FFB8B8"/>
<path d="M138.044 72.2613H122.299L122.318 72.1361C122.346 71.949 125.124 53.3573 123.075 47.2749C122.87 46.6772 122.888 46.0229 123.126 45.438C123.364 44.8531 123.806 44.3789 124.366 44.1067C127.294 42.6977 132.916 40.9628 137.66 45.1732C138.358 45.803 138.904 46.59 139.253 47.4722C139.602 48.3544 139.745 49.3074 139.672 50.256L138.044 72.2613Z" fill="#FFD700"/>
<path d="M125.322 56.1051L118.233 54.6358L121.556 46.5911C121.755 45.8119 122.248 45.1451 122.928 44.737C123.607 44.3288 124.417 44.2126 125.18 44.4139C125.943 44.6152 126.597 45.1175 126.998 45.8106C127.4 46.5038 127.515 47.3311 127.32 48.1113L125.322 56.1051Z" fill="#FFD700"/>
<path d="M134.402 58.8327L133.975 48.852C133.652 46.9758 134.703 45.2021 136.32 44.9122C137.938 44.6234 139.517 45.9246 139.841 47.8146L141.443 57.1407L134.402 58.8327Z" fill="#FFD700"/>
<path d="M137.52 71.0664C140.054 80.9245 140.33 93.4582 139.647 107.13L136.244 106.695L130.078 80.6254L126.675 107.13L122.848 106.913C121.704 92.5677 120.591 80.2528 122.422 72.1527L137.52 71.0664Z" fill="#2F2E41"/>
<path d="M133.601 39.3445C132.627 40.4048 130.818 39.8356 130.691 38.387C130.681 38.2746 130.681 38.1614 130.693 38.0491C130.758 37.4074 131.121 36.8248 131.034 36.1473C131.015 35.9787 130.953 35.818 130.856 35.6805C130.079 34.6183 128.257 36.1556 127.524 35.194C127.075 34.6044 127.603 33.6761 127.258 33.0171C126.803 32.1473 125.455 32.5763 124.61 32.1C123.669 31.57 123.725 30.0958 124.345 29.1991C125.1 28.1056 126.423 27.5221 127.731 27.438C129.038 27.3539 130.336 27.7149 131.557 28.2008C132.943 28.7529 134.318 29.516 135.172 30.7617C136.209 32.2766 136.309 34.3133 135.79 36.0847C135.474 37.1623 134.397 38.4786 133.601 39.3445Z" fill="#2F2E41"/>
<path d="M178.617 112.892H21.6235C21.5565 112.892 21.4923 112.865 21.445 112.816C21.3977 112.768 21.3711 112.702 21.3711 112.634C21.3711 112.565 21.3977 112.5 21.445 112.451C21.4923 112.403 21.5565 112.375 21.6235 112.375H178.617C178.684 112.375 178.748 112.403 178.796 112.451C178.843 112.5 178.87 112.565 178.87 112.634C178.87 112.702 178.843 112.768 178.796 112.816C178.748 112.865 178.684 112.892 178.617 112.892Z" fill="#3F3D56"/>
<path d="M99.73 89.1812H72.0863C71.7222 89.1832 71.3722 89.0376 71.1131 88.7763C70.854 88.515 70.7069 88.1594 70.7041 87.7875V24.7482C70.7069 24.3763 70.854 24.0207 71.1131 23.7594C71.3722 23.4981 71.7222 23.3525 72.0863 23.3545H99.73C100.094 23.3525 100.444 23.4981 100.703 23.7594C100.962 24.0207 101.109 24.3763 101.112 24.7482V87.7875C101.109 88.1594 100.962 88.515 100.703 88.7763C100.444 89.0376 100.094 89.1832 99.73 89.1812Z" fill="white"/>
<path d="M101.112 43.752H70.7041V44.1865H101.112V43.752Z" fill="#CCCCCC"/>
<path d="M101.219 68.542H70.8105V68.9765H101.219V68.542Z" fill="#CCCCCC"/>
<path d="M80.6987 23.3545H80.2734V89.3984H80.6987V23.3545Z" fill="#CCCCCC"/>
<path d="M91.3306 23.3545H90.9053V89.3984H91.3306V23.3545Z" fill="#CCCCCC"/>
</g>
<defs>
<clipPath id="clip0_725_3138">
<rect width="185" height="113" fill="white"/>
</clipPath>
</defs>
</svg>
