<svg width="238" height="58" viewBox="0 0 238 58" fill="none" xmlns="http://www.w3.org/2000/svg">
<path d="M189.114 46.263C189.114 46.263 183.545 7.27912 152.356 1.70999C121.166 -3.85914 117.834 25.0939 113.372 27.3301C108.921 29.5556 96.6644 13.9664 86.6443 20.6429C76.6241 27.3301 71.055 41.8012 71.055 41.8012C71.055 41.8012 62.1423 34.0066 54.3477 39.5757C46.553 45.1449 36.5329 51.8321 36.5329 51.8321C36.5329 51.8321 23.1691 46.263 16.4819 48.4885C9.79463 50.714 2 57.4013 2 57.4013H237C237 57.4013 231.431 41.812 219.185 36.2429C206.929 30.6737 192.458 51.8321 189.114 46.263Z" fill="white" stroke="#263238" stroke-width="1.07512" stroke-miterlimit="10"/>
</svg>
