<svg width="48" height="16" viewBox="0 0 48 16" fill="none" xmlns="http://www.w3.org/2000/svg">
<g clip-path="url(#clip0_683_22303)">
<path d="M43.2322 15.4342L41.2895 13.0364L39.3638 15.4342H35.3119L39.272 10.5375L35.3119 5.63933H39.4903L41.4527 8.01879L43.341 5.63933H47.3732L43.4328 10.5169L47.428 15.4342H43.2322ZM27.5312 15.4342V0.00415039H35.3119V3.44348H30.827V5.63933H35.3119V8.94879H30.827V11.9862H35.3119V15.4342H27.5312Z" fill="#FF5A00"/>
<path d="M24.2485 0.00439453V6.31921H24.2122C23.4855 5.40004 22.5772 5.0797 21.5241 5.0797C19.3661 5.0797 17.7403 6.69547 17.1697 8.82999C16.5187 6.47758 14.8402 5.03569 12.3517 5.03569C10.3304 5.03569 8.73479 6.03386 7.90126 7.66082V5.63921H3.72381V3.44409H8.28312V0.005117H0V15.4345H3.72381V8.94903H7.4355C7.32117 9.44775 7.26402 9.96027 7.26539 10.4746C7.26539 13.6917 9.49915 15.9525 12.3511 15.9525C14.7484 15.9525 16.3296 14.7126 17.1651 12.4555H13.9736C13.5422 13.1347 13.2144 13.3353 12.3514 13.3353C11.3511 13.3353 10.4877 12.3743 10.4877 11.2365H16.9861C17.268 13.7924 19.0773 15.9962 21.5605 15.9962C22.6316 15.9962 23.6123 15.4164 24.2118 14.437H24.2479V15.4366H27.5312V0.005117H24.2485V0.00439453ZM10.5913 8.99521C10.7988 8.01471 11.4894 7.37403 12.3514 7.37403C13.3006 7.37403 13.9562 7.99487 14.1283 8.99521H10.5913ZM22.256 13.0864C21.0462 13.0864 20.2943 11.8458 20.2943 10.55C20.2943 9.16476 20.9485 7.83397 22.256 7.83397C23.6127 7.83397 24.1532 9.16548 24.1532 10.55C24.1532 11.8624 23.5809 13.0864 22.256 13.0864Z" fill="#29007C"/>
</g>
<defs>
<clipPath id="clip0_683_22303">
<rect width="48" height="16" fill="white"/>
</clipPath>
</defs>
</svg>
