<svg width="28" height="18" viewBox="0 0 28 18" fill="none" xmlns="http://www.w3.org/2000/svg">
<g id="Frame 819">
<g id="Group">
<path id="Vector" fill-rule="evenodd" clip-rule="evenodd" d="M3.64928 0.0906292H3.77805L3.99344 0.135024L4.25097 0.180647L4.93752 0.36191L5.88219 0.541941L6.39783 0.678814L6.95621 0.813838L7.55731 0.904472L8.15782 1.08573L8.80223 1.17575L9.44606 1.35701L11.5069 1.76332L12.1513 1.94458L12.8384 2.08022L13.4384 2.21586L14.0834 2.3515L14.6839 2.48714L15.2856 2.57777L15.8006 2.71403L16.3163 2.80404L16.7453 2.93906L17.1316 3.03031L17.4746 3.0747L17.7754 3.12033L17.9908 3.16595L18.119 3.21096H18.2044L18.7634 3.3466L19.2784 3.43723L19.7081 3.57287L20.051 3.66289L20.3952 3.79915L20.6527 3.88977L20.9957 4.07042L21.1245 4.16106L21.3393 4.38671V4.43234L21.3832 4.47734V4.52235H23.228L23.4007 4.56797H23.5722L23.7009 4.61298H23.8297L23.9585 4.65861L24.302 4.83864L24.3448 4.92989L24.6456 5.42682L24.7316 6.01438L24.6456 6.73883L24.4314 7.41702L24.1733 8.09522L23.9152 8.6384L23.7009 9.00031L23.6155 9.13595L23.5295 9.18219L23.3146 9.27097L23.0138 9.40722L22.5842 9.58788L22.1119 9.76976L21.5114 10.0404L20.8669 10.3117L20.1371 10.5836L19.3212 10.9449L18.462 11.2618L17.6045 11.6231L15.7152 12.4382L14.7272 12.8451L13.7392 13.2076L12.7524 13.6577L11.7223 14.0658L10.7343 14.4271L9.78904 14.8803L8.80223 15.2428L7.90029 15.6041L6.18244 16.3273L5.40985 16.6442L4.67999 16.9155L4.03616 17.1862L3.47838 17.4124L3.00546 17.6387L2.61975 17.775L2.3189 17.9112L2.14683 17.9556L2.10352 18H24.302L27.9086 0H3.64928V0.0906292Z" fill="#284E80"/>
<path id="Vector_2" fill-rule="evenodd" clip-rule="evenodd" d="M20.2671 5.92541L20.1377 5.97104L19.2791 6.15107H19.0643L18.8922 6.19607H18.7213L18.4626 6.24232L18.3344 6.28732L18.2484 6.33233L18.2051 6.42358V6.51298L18.2917 6.60361H18.4626L18.6347 6.64862H19.0643L19.3218 6.60361H19.5794L20.181 6.51298H20.4819L20.8249 6.46735L21.1251 6.42358L21.3838 6.37734L21.6835 6.33233H22.843L22.9711 6.37734L23.0578 6.42358L23.1432 6.5586V6.73925L23.1005 6.9199L23.0578 7.14617L22.9711 7.41745L22.843 7.73435L22.7569 8.05126L22.7142 8.2319L22.7997 8.32254L22.8857 8.27691L23.0578 8.09565L23.1432 7.96062L23.272 7.73435L23.4013 7.46307L23.5301 7.14617L23.6583 6.87551L23.7443 6.60361L23.787 6.37734V6.10606L23.7016 5.87979L23.5728 5.74415L23.4013 5.60851L23.1865 5.51788L22.9284 5.47287L22.6287 5.42725H20.8249L20.7821 5.47287H20.7388L20.6534 5.51788L20.5667 5.69914L20.4819 5.74415L20.3958 5.83478L20.2671 5.92541Z" fill="#284E80"/>
<path id="Vector_3" fill-rule="evenodd" clip-rule="evenodd" d="M2.834 4.1582L0 17.9971L0.129351 17.9528L0.386881 17.7721L0.815903 17.5915L1.37486 17.2746L2.0181 16.9583L2.74855 16.5513L3.60718 16.1438L4.42308 15.6913L5.28171 15.2844L6.09703 14.8318L6.91293 14.4243L7.68552 14.0174L8.32994 13.6548L8.88772 13.3842L9.31733 13.1591L9.61817 13.0229L10.0472 12.7966L10.4341 12.5703L10.9058 12.3434L11.3782 12.0728L11.8078 11.8465L12.3228 11.6202L12.7952 11.349L13.3102 11.1239L13.8259 10.8514L16.4018 9.72127L17.5612 9.31374L17.7327 9.26812L17.9042 9.17933L18.119 9.1331L18.8916 8.86181L19.7941 8.59053L20.0944 8.54491L20.9957 8.27363L21.5114 8.18362L21.6829 8.13799L21.8116 8.09237H21.941L22.0692 8.04798L22.1552 7.95734H22.1985V7.9111L22.1119 7.73107L21.9831 7.68607L21.8116 7.64044H21.6402L21.3832 7.59605H21.1245L20.8243 7.64044L20.3092 7.68607L19.7508 7.77608L19.1497 7.9111L18.5053 8.04798L17.8621 8.22862L17.1749 8.4549L16.5305 8.68117L15.844 8.90682L15.2001 9.17933L14.5551 9.40437L13.9546 9.63065L13.3968 9.85692L12.8806 10.1282L12.4516 10.3088L12.0653 10.4907L11.7645 10.6714L10.1332 5.33395H20.524L20.5661 5.1083L20.3952 4.88141L20.1371 4.74577L19.7508 4.61013L19.3212 4.47449L18.2045 4.29384L16.4018 4.1582H2.834Z" fill="#284E80"/>
</g>
</g>
</svg>
