<svg width="24" height="24" viewBox="0 0 24 24" fill="none" xmlns="http://www.w3.org/2000/svg">
<path fill-rule="evenodd" clip-rule="evenodd" d="M2.53906 7.2546L2.6287 17.0001L4.91461 19.7049L11.7726 23.1824L20.1991 19.2326L21.9472 15.2399L21.7679 2.31714L15.4032 2.14541L8.76956 3.17579L2.71861 6.52447L2.53906 7.2546Z" fill="#301506"/>
<path d="M12.3571 0.211864C8.36244 0.211864 4.87802 0.952631 2 2.41345V14.0922C2 16.5497 2.96399 18.6046 4.78726 20.0362C6.48015 21.3663 11.7157 23.5583 12.3573 23.8245C12.9657 23.5709 18.2633 21.345 19.9293 20.0362C21.7515 18.6054 22.7158 16.5498 22.7158 14.0922V2.41345C19.8373 0.952437 16.3529 0.21167 12.3567 0.21167L12.3571 0.211864ZM18.272 2.4732C19.4632 2.48812 20.6329 2.5586 21.7635 2.65925V14.0922C21.7635 16.2892 20.9312 18.0639 19.3253 19.331C17.8906 20.4626 13.5644 22.3192 12.3573 22.8289C11.1339 22.3123 6.79689 20.4323 5.388 19.3314C3.79157 18.0861 2.95125 16.2692 2.95125 14.0926V7.41216C7.53894 3.38228 13.1098 2.40879 18.2716 2.47346L18.272 2.4732ZM12.6271 7.79681C11.6442 7.79681 10.8512 8.00724 10.1983 8.41091V19.6595H12.001V16.0254C12.1809 16.0763 12.442 16.1238 12.8119 16.1238C14.8115 16.1238 15.9608 14.3972 15.9608 11.8763C15.9608 9.36024 14.7774 7.79681 12.6271 7.79681ZM18.7866 7.79681C17.6011 7.82972 16.3613 8.65231 16.3689 10.0468C16.3719 10.965 16.6376 11.6517 18.1233 12.4866C18.9162 12.9324 19.2356 13.2262 19.2493 13.7678C19.2645 14.37 18.8301 14.733 18.1691 14.7306C17.594 14.7262 16.9066 14.4205 16.4462 14.028V15.617C17.0107 15.9393 17.715 16.1524 18.4265 16.1524C20.2073 16.1524 21.0025 14.9475 21.0369 13.8434C21.0708 12.8371 20.7804 12.0756 19.2745 11.2281C18.6024 10.8506 18.0716 10.6024 18.0894 9.97415C18.107 9.36086 18.6386 9.14541 19.149 9.14978C19.7786 9.15511 20.3877 9.48912 20.7637 9.85845V8.35794C20.4468 8.12415 19.7761 7.76776 18.7866 7.79681ZM3.87178 7.97151V13.3973C3.87178 15.2265 4.77513 16.1526 6.55797 16.1526C7.66115 16.1526 8.58511 15.908 9.27339 15.4598V7.97155H7.4747V14.4774C7.27863 14.6061 6.98779 14.6884 6.62193 14.6884C5.7962 14.6884 5.67281 13.9631 5.67281 13.4738V7.97164L3.87178 7.97151ZM12.6392 9.1869C13.6848 9.1869 14.1181 9.98645 14.1181 11.9202C14.1181 13.807 13.6225 14.7185 12.5855 14.7185C12.3415 14.7185 12.1293 14.6606 12.0004 14.6142V9.31185C12.1465 9.24215 12.3946 9.1869 12.6392 9.1869Z" fill="#FAB80A"/>
</svg>
