<svg width="579" height="396" viewBox="0 0 579 396" fill="none" xmlns="http://www.w3.org/2000/svg">
<path d="M516.803 131.943L459.162 1.82593M332.873 47.5126L394 190.5M578.038 270.197L519.292 137.569" stroke="#263238" stroke-width="1.11621" stroke-miterlimit="10"/>
<path d="M346.156 59.4785L393.718 166.713L506.032 125.424L458.459 18.3572" stroke="#263238" stroke-width="1.11621" stroke-miterlimit="10"/>
<path d="M414.847 182.206L402.58 186.716M564.844 257.796L514.916 145.427L421.745 179.672" stroke="#263238" stroke-width="1.11621" stroke-miterlimit="10"/>
<path d="M506.689 144.467C511.103 144.467 514.681 140.889 514.681 136.475C514.681 132.061 511.103 128.483 506.689 128.483C502.275 128.483 498.697 132.061 498.697 136.475C498.697 140.889 502.275 144.467 506.689 144.467Z" stroke="#263238" stroke-width="1.11621" stroke-miterlimit="10"/>
<path d="M506.689 138.797C507.971 138.797 509.011 137.757 509.011 136.475C509.011 135.193 507.971 134.153 506.689 134.153C505.407 134.153 504.367 135.193 504.367 136.475C504.367 137.757 505.407 138.797 506.689 138.797Z" stroke="#263238" stroke-width="1.11621" stroke-miterlimit="10"/>
<path d="M241.644 395.102L214.319 333.431" stroke="#263238" stroke-width="1.11621" stroke-miterlimit="10"/>
<path d="M210.882 325.673L124.956 131.686M1 176.525L61.8337 316.889" stroke="#263238" stroke-width="1.11621" stroke-miterlimit="10"/>
<path d="M87.7184 283.592L170.954 252.996L124.263 147.905M14.0371 188.267L60.7172 293.515L82.6731 285.445" stroke="#263238" stroke-width="1.11621" stroke-miterlimit="10"/>
<path d="M69.4238 313.16L179.683 272.631L228.685 382.924" stroke="#263238" stroke-width="1.11621" stroke-miterlimit="10"/>
<path d="M179.449 263.846C179.449 268.177 175.933 271.682 171.613 271.682C167.293 271.682 163.777 268.166 163.777 263.846C163.777 259.526 167.293 256.01 171.613 256.01C175.933 256.01 179.449 259.526 179.449 263.846Z" stroke="#263238" stroke-width="1.11621" stroke-miterlimit="10"/>
<path d="M173.891 263.846C173.891 265.108 172.875 266.123 171.614 266.123C170.353 266.123 169.337 265.108 169.337 263.846C169.337 262.585 170.353 261.569 171.614 261.569C172.875 261.569 173.891 262.585 173.891 263.846Z" stroke="#263238" stroke-width="1.11621" stroke-miterlimit="10"/>
<path d="M172.886 106.426V106.75L172.764 106.471L172.886 106.426Z" fill="#263238" stroke="#263238" stroke-width="1.11621" stroke-miterlimit="10"/>
<path d="M286.015 376.16L285.758 376.26L258.399 310.939L286.015 376.16Z" fill="#263238" stroke="#263238" stroke-width="1.11621" stroke-miterlimit="10"/>
<path d="M408.385 328.821L291.64 373.983H291.629L302.267 263.466L220.738 87.6404L284.362 62.6819L408.385 328.821Z" fill="#263238" stroke="#263238" stroke-width="1.11621" stroke-miterlimit="10"/>
<path d="M302.268 263.467L297.111 265.219L215.684 89.6274L175.399 2.75246L180.567 1L220.74 87.6405L302.268 263.467Z" fill="#BFBFBF" stroke="#263238" stroke-width="1.11621" stroke-miterlimit="10"/>
<path d="M291.631 373.983L291.519 375.2L286.351 376.941L286.105 376.126L286.44 375.992L291.631 373.983Z" fill="#BFBFBF" stroke="#263238" stroke-width="1.11621" stroke-miterlimit="10"/>
<path d="M286.105 376.126L286.016 376.16L286.35 376.941L286.44 375.992L286.105 376.126Z" fill="#BFBFBF" stroke="#263238" stroke-width="1.11621" stroke-miterlimit="10"/>
<path d="M215.683 89.6274L175.399 2.75244L172.888 106.426V106.75L258.401 310.939L286.016 376.16L286.105 376.126L286.44 375.992L297.111 265.219L215.683 89.6274ZM277.064 342.997L274.474 336.869L224.814 219.611L183.09 121.093L183.447 102.274L184.697 36.6965L186.829 41.2842L210.236 91.7705L232.27 139.288L232.538 139.879L285.436 253.956L277.064 342.997Z" fill="#BFBFBF" stroke="#263238" stroke-width="1.11621" stroke-miterlimit="10"/>
<path d="M232.27 139.288L230.562 157.716C227.549 159.19 226.633 163.844 228.509 168.343C228.765 168.968 229.067 169.548 229.413 170.095L228.363 181.38L224.814 219.611L183.09 121.093L183.447 102.274L184.697 36.6965L186.829 41.2842L210.236 91.7705L232.27 139.288Z" fill="#BFBFBF" stroke="#263238" stroke-width="1.11621" stroke-miterlimit="10"/>
<path d="M285.435 253.957L277.063 342.997L274.474 336.869L224.813 219.611L237.304 248.811L240.005 220.626L245.095 167.349L232.538 139.879L285.435 253.957Z" fill="#BFBFBF" stroke="#263238" stroke-width="1.11621" stroke-miterlimit="10"/>
<path d="M302.268 263.467L291.631 373.983L286.44 375.992L297.111 265.219L302.268 263.467Z" fill="#BFBFBF" stroke="#263238" stroke-width="1.11621" stroke-miterlimit="10"/>
<path d="M286.441 375.992L291.631 373.983L291.52 375.2L286.352 376.941L286.441 375.992Z" fill="#BFBFBF" stroke="#263238" stroke-width="1.11621" stroke-miterlimit="10"/>
<path d="M302.268 263.467L291.642 373.983H291.631L302.268 263.467Z" fill="#BFBFBF" stroke="#263238" stroke-width="1.11621" stroke-miterlimit="10"/>
<path d="M245.095 167.349L240.005 220.626L237.304 248.811L224.813 219.61L228.363 181.38L229.412 170.095C231.567 173.667 235.116 175.565 237.94 174.437C239.324 173.879 240.318 172.707 240.831 171.156C242.829 169.727 243.365 166.267 241.97 162.918C240.541 159.513 237.583 157.393 235.094 157.839C233.676 157.181 232.203 157.047 230.886 157.571C230.774 157.616 230.674 157.661 230.573 157.716L232.281 139.299L232.549 139.879L245.106 167.349H245.095Z" fill="#BFBFBF" stroke="#263238" stroke-width="1.11621" stroke-miterlimit="10"/>
<path d="M240.831 171.144C241.545 169.068 241.423 166.334 240.306 163.666C239.146 160.886 237.181 158.799 235.094 157.839C237.583 157.393 240.541 159.513 241.97 162.918C243.365 166.267 242.829 169.727 240.831 171.144Z" fill="#BFBFBF" stroke="#263238" stroke-width="1.11621" stroke-miterlimit="10"/>
<path d="M240.306 163.666C239.145 160.886 237.181 158.799 235.094 157.839C233.676 157.181 232.203 157.047 230.885 157.571C230.774 157.616 230.673 157.661 230.573 157.716C227.559 159.19 226.644 163.844 228.519 168.343C228.776 168.968 229.077 169.548 229.423 170.095C231.578 173.667 235.127 175.565 237.951 174.437C239.335 173.879 240.329 172.707 240.842 171.156C241.556 169.068 241.434 166.334 240.317 163.666H240.306ZM234.022 169.213C233.877 169.794 233.542 170.24 233.051 170.441C232.035 170.843 230.707 169.995 230.104 168.532C229.49 167.081 229.825 165.563 230.841 165.162C231.209 165.016 231.611 165.039 232.013 165.195C232.716 165.452 233.397 166.133 233.788 167.07C234.1 167.818 234.167 168.588 234.022 169.213Z" fill="white" stroke="#263238" stroke-width="1.11621" stroke-miterlimit="10"/>
<path d="M234.022 169.213C233.877 169.794 233.543 170.24 233.051 170.441C232.036 170.843 230.707 169.995 230.105 168.532C229.491 167.081 229.825 165.563 230.841 165.161C231.21 165.016 231.611 165.039 232.013 165.195C232.716 165.452 233.397 166.133 233.788 167.07C234.101 167.818 234.168 168.588 234.022 169.213Z" fill="white" stroke="#263238" stroke-width="1.11621" stroke-miterlimit="10"/>
</svg>
