<svg width="336" height="214" viewBox="0 0 336 214" fill="none" xmlns="http://www.w3.org/2000/svg">
<path opacity="0.15" d="M286.006 207.584C280.815 206.019 275.549 204.751 270.201 203.9C245.961 200.032 190.077 198.69 162.995 199.879C127.836 201.424 16.4158 227.322 7.99635 203.632C-0.418384 179.947 2.05794 6.41019 18.4017 2.80515C34.7454 -0.799876 92.6818 13.3875 126.85 14.4175C161.019 15.4475 242.728 1.77515 276.401 0.230133C310.074 -1.31488 313.046 4.35017 320.97 34.7305C328.894 65.1108 337.314 165.012 335.828 188.182C334.566 207.881 298.597 211.382 286.011 207.584H286.006Z" fill="#FFD700"/>
<path d="M301.748 151.54C301.748 151.54 300.183 140.585 291.419 139.02C282.654 137.455 281.717 145.592 280.464 146.22C279.213 146.845 275.768 142.465 272.953 144.341C270.137 146.22 268.572 150.287 268.572 150.287C268.572 150.287 266.067 148.096 263.877 149.661C261.687 151.226 258.871 153.105 258.871 153.105C258.871 153.105 255.115 151.54 253.236 152.166C251.357 152.791 249.167 154.67 249.167 154.67H315.205C315.205 154.67 313.64 150.29 310.199 148.725C306.754 147.16 302.688 153.105 301.748 151.54Z" fill="white" stroke="#263238" stroke-width="0.302124" stroke-miterlimit="10"/>
<path d="M37.2666 54.0777C37.2666 54.0777 36.187 46.5294 30.1483 45.4497C24.1096 44.3701 23.4601 49.9788 22.6 50.4118C21.7369 50.8419 19.3641 47.8225 17.4244 49.1187C15.4816 50.4118 14.405 53.2176 14.405 53.2176C14.405 53.2176 12.6788 51.708 11.1692 52.7876C9.65948 53.8672 7.71676 55.1604 7.71676 55.1604C7.71676 55.1604 5.12746 54.0807 3.83431 54.5138C2.54117 54.9438 1.03149 56.24 1.03149 56.24H46.5412C46.5412 56.24 45.4616 53.2206 43.0888 52.141C40.716 51.0614 37.9132 55.1604 37.2636 54.0837L37.2666 54.0777Z" fill="white" stroke="#263238" stroke-width="0.300732" stroke-miterlimit="10"/>
<path d="M290.009 32.0147C290.009 32.0147 288.732 23.0775 281.583 21.8007C274.434 20.524 273.668 27.1616 272.645 27.673C271.623 28.1845 268.815 24.6081 266.519 26.1424C264.223 27.673 262.946 30.9919 262.946 30.9919C262.946 30.9919 260.904 29.2037 259.116 30.4804C257.328 31.7572 255.032 33.2878 255.032 33.2878C255.032 33.2878 251.967 32.0111 250.437 32.5225C248.906 33.0339 247.118 34.5646 247.118 34.5646H300.988C300.988 34.5646 299.711 30.9919 296.904 29.7151C294.096 28.4384 290.778 33.2878 290.009 32.0147Z" fill="white" stroke="#263238" stroke-width="0.367941" stroke-miterlimit="10"/>
<path d="M73.0139 176.272C73.0139 176.272 71.4499 165.313 62.6862 163.749C53.9225 162.185 52.9841 170.323 51.7329 170.949C50.4817 171.575 47.0357 167.19 44.2204 169.072C41.4052 170.949 39.836 175.021 39.836 175.021C39.836 175.021 37.3336 172.831 35.1387 174.395C32.9439 175.959 30.1287 177.836 30.1287 177.836C30.1287 177.836 26.3698 176.272 24.493 176.897C22.6162 177.523 20.4214 179.4 20.4214 179.4H86.4696C86.4696 179.4 84.9056 175.015 81.4595 173.451C78.0187 171.887 73.9471 177.836 73.0087 176.267L73.0139 176.272Z" fill="white" stroke="#263238" stroke-width="0.521337" stroke-miterlimit="10"/>
<path d="M80.0166 28.9224C80.0166 28.9224 78.741 19.9849 71.5936 18.7094C64.4462 17.4338 63.6809 24.071 62.6562 24.5812C61.6357 25.0914 58.8252 21.5156 56.5292 23.0505C54.2332 24.5812 52.9534 27.9019 52.9534 27.9019C52.9534 27.9019 50.9125 26.1161 49.1224 27.3917C47.3366 28.6673 45.0364 30.1979 45.0364 30.1979C45.0364 30.1979 41.9708 28.9224 40.4401 29.4326C38.9094 29.9428 37.1194 31.4735 37.1194 31.4735H90.9864C90.9864 31.4735 89.7109 27.8977 86.9004 26.6221C84.0941 25.3466 80.7734 30.1979 80.0081 28.9181L80.0166 28.9224Z" fill="white" stroke="#263238" stroke-width="0.425188" stroke-miterlimit="10"/>
<path d="M242.513 63.1771L222.287 17.5198M177.973 33.551L199.422 83.7244M264 111.69L243.386 65.1512" stroke="#263238" stroke-width="0.391673" stroke-miterlimit="10"/>
<path d="M182.634 37.7498L199.323 75.3778L238.733 60.8899L222.04 23.3206" stroke="#263238" stroke-width="0.391673" stroke-miterlimit="10"/>
<path d="M206.738 80.8141L202.433 82.3964M259.371 107.338L241.851 67.9084L209.158 79.925" stroke="#263238" stroke-width="0.391673" stroke-miterlimit="10"/>
<path d="M238.965 67.5716C240.513 67.5716 241.769 66.3161 241.769 64.7673C241.769 63.2185 240.513 61.9629 238.965 61.9629C237.416 61.9629 236.16 63.2185 236.16 64.7673C236.16 66.3161 237.416 67.5716 238.965 67.5716Z" stroke="#263238" stroke-width="0.391673" stroke-miterlimit="10"/>
<path d="M238.965 65.582C239.415 65.582 239.78 65.2173 239.78 64.7673C239.78 64.3174 239.415 63.9526 238.965 63.9526C238.515 63.9526 238.15 64.3174 238.15 64.7673C238.15 65.2173 238.515 65.582 238.965 65.582Z" stroke="#263238" stroke-width="0.391673" stroke-miterlimit="10"/>
<path d="M145.962 155.518L136.374 133.878" stroke="#263238" stroke-width="0.391673" stroke-miterlimit="10"/>
<path d="M135.167 131.156L105.016 63.0869M61.5205 78.8204L82.8667 128.073" stroke="#263238" stroke-width="0.391673" stroke-miterlimit="10"/>
<path d="M91.9493 116.39L121.156 105.654L104.773 68.7778M66.095 82.9407L82.4747 119.872L90.179 117.04" stroke="#263238" stroke-width="0.391673" stroke-miterlimit="10"/>
<path d="M85.53 126.765L124.22 112.543L141.414 151.245" stroke="#263238" stroke-width="0.391673" stroke-miterlimit="10"/>
<path d="M124.138 109.461C124.138 110.981 122.904 112.211 121.388 112.211C119.872 112.211 118.639 110.977 118.639 109.461C118.639 107.945 119.872 106.711 121.388 106.711C122.904 106.711 124.138 107.945 124.138 109.461Z" stroke="#263238" stroke-width="0.391673" stroke-miterlimit="10"/>
<path d="M122.187 109.461C122.187 109.904 121.831 110.26 121.388 110.26C120.946 110.26 120.589 109.904 120.589 109.461C120.589 109.019 120.946 108.662 121.388 108.662C121.831 108.662 122.187 109.019 122.187 109.461Z" stroke="#263238" stroke-width="0.391673" stroke-miterlimit="10"/>
<path d="M121.835 54.2234V54.339L121.792 54.2393L121.835 54.2234Z" fill="#263238" stroke="#263238" stroke-width="0.391673" stroke-miterlimit="10"/>
<path d="M161.531 148.871L161.44 148.907L151.841 125.986L161.531 148.871Z" fill="#263238" stroke="#263238" stroke-width="0.391673" stroke-miterlimit="10"/>
<path d="M204.47 132.26L163.505 148.108H163.501L167.233 109.328L138.625 47.6316L160.951 38.8738L204.47 132.26Z" fill="#263238" stroke="#263238" stroke-width="0.391673" stroke-miterlimit="10"/>
<path d="M167.234 109.328L165.425 109.943L136.852 48.3288L122.717 17.8449L124.53 17.23L138.626 47.6317L167.234 109.328Z" fill="#BFBFBF" stroke="#263238" stroke-width="0.391673" stroke-miterlimit="10"/>
<path d="M163.501 148.108L163.462 148.535L161.648 149.146L161.562 148.86L161.68 148.813L163.501 148.108Z" fill="#BFBFBF" stroke="#263238" stroke-width="0.391673" stroke-miterlimit="10"/>
<path d="M161.562 148.86L161.531 148.872L161.649 149.146L161.68 148.813L161.562 148.86Z" fill="#BFBFBF" stroke="#263238" stroke-width="0.391673" stroke-miterlimit="10"/>
<path d="M136.851 48.3289L122.716 17.845L121.834 54.2236V54.3372L151.841 125.986L161.531 148.871L161.562 148.86L161.679 148.813L165.424 109.943L136.851 48.3289ZM158.389 137.235L157.481 135.085L140.055 93.9393L125.414 59.3702L125.54 52.7666L125.978 29.7558L126.726 31.3655L134.94 49.0809L142.671 65.7544L142.765 65.962L161.327 105.991L158.389 137.235Z" fill="#BFBFBF" stroke="#263238" stroke-width="0.391673" stroke-miterlimit="10"/>
<path d="M142.671 65.7543L142.072 72.2208C141.015 72.7378 140.693 74.3711 141.351 75.9496C141.442 76.1689 141.547 76.3726 141.669 76.5645L141.301 80.5243L140.055 93.9391L125.414 59.37L125.54 52.7664L125.978 29.7556L126.726 31.3654L134.94 49.0808L142.671 65.7543Z" fill="#BFBFBF" stroke="#263238" stroke-width="0.391673" stroke-miterlimit="10"/>
<path d="M161.327 105.991L158.389 137.235L157.48 135.084L140.055 93.9391L144.438 104.185L145.386 94.2956L147.172 75.601L142.765 65.9619L161.327 105.991Z" fill="#BFBFBF" stroke="#263238" stroke-width="0.391673" stroke-miterlimit="10"/>
<path d="M167.234 109.328L163.501 148.108L161.68 148.813L165.424 109.943L167.234 109.328Z" fill="#BFBFBF" stroke="#263238" stroke-width="0.391673" stroke-miterlimit="10"/>
<path d="M161.68 148.813L163.501 148.108L163.462 148.535L161.649 149.146L161.68 148.813Z" fill="#BFBFBF" stroke="#263238" stroke-width="0.391673" stroke-miterlimit="10"/>
<path d="M167.234 109.328L163.505 148.108H163.501L167.234 109.328Z" fill="#BFBFBF" stroke="#263238" stroke-width="0.391673" stroke-miterlimit="10"/>
<path d="M147.172 75.6011L145.386 94.2956L144.438 104.185L140.055 93.9392L141.3 80.5244L141.669 76.5646C142.425 77.8179 143.67 78.4838 144.661 78.0882C145.147 77.8923 145.495 77.4811 145.675 76.9367C146.377 76.4353 146.565 75.2211 146.075 74.0461C145.574 72.8515 144.536 72.1073 143.662 72.264C143.165 72.0329 142.648 71.9859 142.186 72.17C142.146 72.1857 142.111 72.2013 142.076 72.2209L142.675 65.7583L142.769 65.962L147.176 75.6011H147.172Z" fill="#BFBFBF" stroke="#263238" stroke-width="0.391673" stroke-miterlimit="10"/>
<path d="M145.676 76.9329C145.927 76.2044 145.884 75.2448 145.492 74.3087C145.085 73.3334 144.395 72.601 143.663 72.2641C144.536 72.1075 145.574 72.8517 146.076 74.0463C146.565 75.2213 146.377 76.4355 145.676 76.9329Z" fill="#BFBFBF" stroke="#263238" stroke-width="0.391673" stroke-miterlimit="10"/>
<path d="M145.491 74.3086C145.084 73.3333 144.395 72.6009 143.662 72.264C143.165 72.0329 142.648 71.986 142.186 72.17C142.147 72.1857 142.111 72.2014 142.076 72.221C141.019 72.738 140.697 74.3712 141.355 75.9497C141.445 76.169 141.551 76.3727 141.673 76.5646C142.429 77.818 143.674 78.4838 144.665 78.0882C145.151 77.8924 145.499 77.4811 145.679 76.9367C145.93 76.2043 145.887 75.2447 145.495 74.3086H145.491ZM143.286 76.2552C143.235 76.4589 143.118 76.6155 142.946 76.686C142.589 76.827 142.123 76.5294 141.912 76.0163C141.696 75.5071 141.814 74.9744 142.17 74.8334C142.299 74.7825 142.44 74.7903 142.581 74.8452C142.828 74.9353 143.067 75.1742 143.204 75.5032C143.314 75.7656 143.337 76.0358 143.286 76.2552Z" fill="white" stroke="#263238" stroke-width="0.391673" stroke-miterlimit="10"/>
<path d="M143.287 76.2552C143.236 76.4589 143.119 76.6155 142.946 76.6861C142.59 76.8271 142.124 76.5294 141.912 76.0163C141.697 75.5071 141.814 74.9744 142.171 74.8334C142.3 74.7825 142.441 74.7904 142.582 74.8452C142.829 74.9353 143.068 75.1742 143.205 75.5032C143.315 75.7656 143.338 76.0359 143.287 76.2552Z" fill="white" stroke="#263238" stroke-width="0.391673" stroke-miterlimit="10"/>
</svg>
