<svg width="212" height="155" viewBox="0 0 212 155" fill="none" xmlns="http://www.w3.org/2000/svg">
<path d="M208.333 136L209 135.987C208.742 128.52 207.951 121.081 206.633 113.728C203.75 97.9865 198.955 87.6479 192.383 83L192 83.5496C207.353 94.4069 208.325 135.585 208.333 136Z" fill="#2F2E41"/>
<path d="M199.391 136L200 135.987C199.987 135.247 199.606 117.818 193.35 113L193 113.547C199.004 118.17 199.388 135.822 199.391 136Z" fill="#2F2E41"/>
<path d="M188 84C189.657 84 191 82.433 191 80.5C191 78.567 189.657 77 188 77C186.343 77 185 78.567 185 80.5C185 82.433 186.343 84 188 84Z" fill="#00A6C2"/>
<path d="M189.5 113C191.433 113 193 111.433 193 109.5C193 107.567 191.433 106 189.5 106C187.567 106 186 107.567 186 109.5C186 111.433 187.567 113 189.5 113Z" fill="#00A6C2"/>
<path d="M207.157 64.1531C206.471 68.2952 208.258 72 208.258 72C208.258 72 211.158 68.989 211.843 64.8469C212.529 60.7048 210.742 57 210.742 57C210.742 57 207.842 60.011 207.157 64.1531Z" fill="#2F2E41"/>
<path d="M190.291 95.3746C194.157 96.5765 198 95.6763 198 95.6763C198 95.6763 195.575 92.8274 191.709 91.6254C187.843 90.4235 184 91.3237 184 91.3237C184 91.3237 186.425 94.1726 190.291 95.3746Z" fill="#2F2E41"/>
<path d="M190.493 120.629C192.276 121.053 194.175 121.115 196 120.809C194.841 119.695 193.281 118.857 191.507 118.397C189.732 117.938 187.82 117.875 186 118.218C187.192 119.305 188.742 120.137 190.493 120.629Z" fill="#2F2E41"/>
<path d="M83.2556 51.2574L61.6691 40.2374C61.6691 40.2374 54.4202 32.4001 49.8676 28.8601C45.3151 25.3202 43.9137 27.9207 43.9137 27.9207L42 31.0521L46.6249 37.367L59.1175 47.7527L81.4395 56.3362C81.7886 56.8974 82.2928 57.3499 82.8934 57.641C83.494 57.9321 84.1664 58.0499 84.8325 57.9807C85.4986 57.9116 86.131 57.6583 86.6564 57.2504C87.1817 56.8424 87.5783 56.2965 87.8002 55.676C88.022 55.0555 88.06 54.386 87.9097 53.7452C87.7594 53.1044 87.427 52.5186 86.9511 52.0559C86.4752 51.5931 85.8753 51.2725 85.2211 51.1312C84.567 50.9898 83.8854 51.0336 83.2556 51.2574Z" fill="#9F616A"/>
<path d="M27 41.6942L25.7183 33.9424L22.0993 33.048C22.0993 33.048 19.2272 32.1734 18.5559 37.8928C17.8845 43.6123 18.405 54.2909 18.405 54.2909L11.0573 77.2935C10.4461 77.5746 9.92827 78.0215 9.56405 78.5822C9.19984 79.143 9.00425 79.7945 9.00007 80.4609C8.99589 81.1273 9.18328 81.7811 9.54043 82.3463C9.89757 82.9115 10.4098 83.3647 11.0174 83.6532C11.625 83.9418 12.303 84.0537 12.9725 83.976C13.642 83.8983 14.2754 83.6343 14.7989 83.2145C15.3225 82.7947 15.7146 82.2365 15.9297 81.605C16.1448 80.9734 16.1739 80.2944 16.0138 79.6471L25.643 57.8686L27 41.6942Z" fill="#9F616A"/>
<path d="M57.001 150L61.7436 150L64 132L57 132L57.001 150Z" fill="#9F616A"/>
<path d="M56 149L65.1613 149H65.1617C66.7101 149 68.195 149.612 69.2899 150.702C70.3848 151.792 70.9999 153.27 71 154.811V154.999L56.0003 155L56 149Z" fill="#2F2E41"/>
<path d="M3.00067 149L7.74379 149L10 131L3 131L3.00067 149Z" fill="#9F616A"/>
<path d="M2 148L11.1613 148H11.1617C12.7101 148 14.195 148.612 15.2899 149.702C16.3847 150.792 16.9999 152.27 17 153.811V153.999L2.00027 154L2 148Z" fill="#2F2E41"/>
<path d="M28.4787 26.0182L20.7158 32.6521L27.0866 52.8344L28.5241 57.3412C28.5241 57.3412 19.7466 65.4427 14.3156 88.0742C8.88454 110.706 0 140.777 0 140.777L18.7537 146.151L34.0111 94.9567L51.9574 135.121L54.0294 147L70 142.286L66.2327 112.493L47.3965 60.9212L49.3531 47.2504C49.3531 47.2504 52.2914 40.4268 47.187 33.2025L45.5859 26.4142L39.8503 25L28.4787 26.0182Z" fill="#2F2E41"/>
<path d="M41.3881 23H20.6119C20.1846 22.9995 19.7749 22.8263 19.4727 22.5183C19.1705 22.2103 19.0005 21.7927 19 21.3571V12.2302C19 8.98652 20.2643 5.87573 22.5147 3.58213C24.7652 1.28853 27.8174 0 31 0C34.1826 0 37.2348 1.28853 39.4853 3.58213C41.7357 5.87573 43 8.98652 43 12.2302V21.3571C42.9995 21.7927 42.8295 22.2103 42.5273 22.5183C42.2252 22.8263 41.8154 22.9995 41.3881 23Z" fill="#2F2E41"/>
<path d="M41.5916 17.8943C43.947 13.5947 42.3635 8.2039 38.0547 5.85355C33.746 3.50319 28.3437 5.08333 25.9884 9.3829C23.633 13.6825 25.2165 19.0733 29.5252 21.4237C33.834 23.774 39.2363 22.1939 41.5916 17.8943Z" fill="#9F616A"/>
<path d="M46 13H33.159L33.0273 11.1141L32.3689 13H30.3917L30.1308 9.2623L28.8259 13H25V12.8148C25.0029 10.2127 26.0146 7.71795 27.8134 5.87794C29.6121 4.03794 32.0509 3.00294 34.5947 3H36.4052C38.949 3.00294 41.3878 4.03794 43.1866 5.87793C44.9853 7.71793 45.9971 10.2127 46 12.8148V13Z" fill="#2F2E41"/>
<path d="M33.4172 24C33.3233 23.9999 33.2295 23.9915 33.137 23.9749L24 22.3375V7H34.0581L33.8091 7.29489C30.3445 11.3988 32.9547 18.0535 34.8189 21.6549C34.9563 21.9187 35.0176 22.2165 34.9956 22.5141C34.9737 22.8116 34.8695 23.0969 34.695 23.337C34.5488 23.5422 34.3568 23.7094 34.1346 23.8246C33.9125 23.9399 33.6667 24 33.4172 24Z" fill="#2F2E41"/>
<path d="M111.564 105.562L29.0502 134.539C27.01 135.253 24.7681 135.134 22.8163 134.208C20.8644 133.282 19.362 131.625 18.6387 129.6L4.46407 89.7791C3.74535 87.7527 3.86524 85.5259 4.79741 83.5872C5.72959 81.6485 7.39794 80.1562 9.43644 79.4377L91.9498 50.4609C93.99 49.7471 96.2319 49.8661 98.1837 50.792C100.136 51.7179 101.638 53.375 102.361 55.3998L116.536 95.2209C117.255 97.2473 117.135 99.4741 116.203 101.413C115.27 103.352 113.602 104.844 111.564 105.562Z" fill="white"/>
<path d="M116.481 95L116.555 95.2125C117.243 97.1648 117.129 99.3112 116.24 101.18C115.35 103.048 113.757 104.485 111.812 105.175L29.0023 134.554C27.0571 135.244 24.9185 135.13 23.0568 134.238C21.1951 133.346 19.7628 131.748 19.0749 129.796L19 129.584L116.481 95Z" fill="#F2F2F2"/>
<path d="M24 88.4247C18.5052 91.7902 11.4629 89.2574 9 85.5683L9.39267 85.3606C14.0706 82.6465 21.0176 84.1587 24 88.4247Z" fill="#FFD700"/>
<path d="M91.8177 98.6704C90.4984 99.1299 89.3104 99.1089 88.2865 98.6077C85.9724 97.475 84.8865 94.1164 84.0139 91.4177C83.7601 90.6326 83.5203 89.8909 83.2761 89.2848L83.2726 89.2756C82.8478 88.0732 82.9218 86.7542 83.4784 85.6051C84.0351 84.4561 85.0295 83.5699 86.2457 83.139L97.1836 79.3293C98.5013 78.8703 99.6879 78.8912 100.711 79.3915C103.025 80.5228 104.111 83.8802 104.985 86.578C105.239 87.3647 105.48 88.1078 105.725 88.7148C106.152 89.9184 106.08 91.2395 105.523 92.3907C104.966 93.5418 103.971 94.4299 102.753 94.8616L91.8177 98.6704ZM83.7309 89.1124C83.9807 89.7331 84.2224 90.4806 84.4782 91.272C85.3229 93.8844 86.3741 97.1356 88.5034 98.1778C89.4173 98.6251 90.4483 98.6382 91.6552 98.2179L102.59 94.4093C103.685 94.0214 104.581 93.2233 105.082 92.1886C105.584 91.1538 105.651 89.9659 105.269 88.8829C105.021 88.2696 104.778 87.5188 104.52 86.7238C103.675 84.1124 102.623 80.8623 100.494 79.8215C99.5813 79.375 98.5513 79.3621 97.3461 79.7818L86.4088 83.5913C85.3147 83.9792 84.4199 84.7764 83.9186 85.8099C83.4173 86.8435 83.3498 88.0301 83.7309 89.1124Z" fill="#3F3D56"/>
<path d="M21.4839 90.3828C19.4857 91.0684 17.3333 91.1855 15.2713 90.7207C12.2599 90.0665 9.52696 88.2874 8.13911 86.0782L8 85.8568L8.625 85.5052C13.4672 82.521 20.7284 84.1388 23.8626 88.9034L24 89.1123L23.7896 89.2494C23.0702 89.7182 22.296 90.0988 21.4839 90.3828ZM8.71259 86.0326C10.0708 88.0294 12.5983 89.6267 15.3799 90.2312C18.0839 90.8561 20.9278 90.402 23.2958 88.9672C20.23 84.5793 13.4376 83.1237 8.88875 85.9334L8.71259 86.0326Z" fill="#3F3D56"/>
<path d="M23.9872 118.721C23.2873 118.987 22.5253 119.065 21.7828 118.946C21.0403 118.828 20.3454 118.518 19.7727 118.05C19.1023 117.489 18.5941 116.771 18.297 115.967C18 115.162 17.9241 114.298 18.0767 113.457C18.2185 112.733 18.5664 112.062 19.082 111.516C19.5975 110.971 20.2606 110.573 20.9977 110.366L35.9336 105.304C36.6424 105.023 37.4186 104.934 38.1765 105.049C38.9345 105.163 39.6448 105.476 40.2292 105.952C40.8992 106.514 41.407 107.232 41.7037 108.036C42.0003 108.841 42.0759 109.705 41.923 110.546C41.6281 112.023 40.5875 113.111 39.0014 113.632L24.0652 118.694C24.0392 118.703 24.0132 118.712 23.9872 118.721ZM21.0906 110.842C20.4533 111.03 19.8817 111.382 19.4371 111.858C18.9925 112.335 18.6918 112.919 18.5673 113.547C18.4298 114.304 18.4982 115.083 18.7658 115.808C19.0334 116.532 19.4913 117.179 20.0952 117.685C20.613 118.105 21.2421 118.38 21.9128 118.479C22.5836 118.578 23.2698 118.496 23.8952 118.244L38.8384 113.18C39.491 112.999 40.0787 112.649 40.5365 112.169C40.9943 111.688 41.3044 111.095 41.4325 110.456C41.5702 109.698 41.5022 108.92 41.2349 108.195C40.9676 107.47 40.5101 106.824 39.9064 106.317C39.3879 105.897 38.7585 105.623 38.0875 105.523C37.4165 105.424 36.7299 105.504 36.1034 105.755L21.1592 110.819C21.1363 110.826 21.1133 110.834 21.0906 110.842Z" fill="#3F3D56"/>
<path d="M92.1914 87.3313L87.6172 88.9314C87.3139 89.0375 86.9805 89.02 86.6902 88.8828C86.3999 88.7457 86.1766 88.5001 86.0694 88.2C85.9621 87.9 85.9798 87.57 86.1184 87.2829C86.257 86.9957 86.5053 86.7747 86.8086 86.6686L91.3828 85.0686C91.6861 84.9625 92.0195 84.98 92.3098 85.1172C92.6001 85.2543 92.8234 85.4999 92.9306 85.8C93.0379 86.1 93.0202 86.43 92.8816 86.7171C92.743 87.0043 92.4947 87.2253 92.1914 87.3313Z" fill="#00A6C2"/>
<path d="M93.1914 90.9142L88.6172 92.9142C88.3139 93.0468 87.9805 93.025 87.6902 92.8535C87.3999 92.6821 87.1766 92.3751 87.0694 92C86.9621 91.6249 86.9798 91.2126 87.1184 90.8536C87.257 90.4946 87.5053 90.2184 87.8086 90.0858L92.3828 88.0858C92.6861 87.9532 93.0195 87.975 93.3098 88.1464C93.6001 88.3179 93.8234 88.6249 93.9306 89C94.0379 89.3751 94.0202 89.7874 93.8816 90.1464C93.743 90.5054 93.4947 90.7816 93.1914 90.9142Z" fill="#00A6C2"/>
<path d="M95.0759 94.3313L89.8483 95.9314C89.6766 95.9839 89.4947 96.0066 89.313 95.9983C89.1312 95.99 88.9531 95.9507 88.7888 95.8828C88.6245 95.8149 88.4773 95.7197 88.3556 95.6025C88.2339 95.4853 88.14 95.3486 88.0793 95.2C88.0186 95.0514 87.9923 94.894 88.0019 94.7366C88.0116 94.5792 88.0569 94.4251 88.1353 94.2828C88.2138 94.1406 88.3238 94.0132 88.4592 93.9078C88.5945 93.8025 88.7525 93.7212 88.9241 93.6686L94.1517 92.0686C94.3234 92.0161 94.5053 91.9934 94.687 92.0017C94.8688 92.01 95.047 92.0492 95.2112 92.1172C95.3755 92.1851 95.5227 92.2803 95.6444 92.3975C95.7662 92.5146 95.86 92.6514 95.9207 92.8C95.9814 92.9486 96.0077 93.106 95.9981 93.2634C95.9884 93.4207 95.9431 93.5749 95.8647 93.7171C95.7862 93.8593 95.6762 93.9868 95.5408 94.0921C95.4055 94.1975 95.2475 94.2788 95.0759 94.3313Z" fill="#00A6C2"/>
<path d="M100.191 84.3314L95.6172 85.9314C95.4671 85.9839 95.3079 86.0066 95.1488 85.9983C94.9898 85.99 94.8339 85.9508 94.6902 85.8828C94.5465 85.8149 94.4177 85.7197 94.3111 85.6025C94.2046 85.4854 94.1225 85.3486 94.0694 85.2C94.0163 85.0514 93.9933 84.894 94.0017 84.7366C94.0101 84.5792 94.0498 84.4251 94.1184 84.2829C94.1871 84.1407 94.2833 84.0132 94.4018 83.9078C94.5202 83.8025 94.6584 83.7212 94.8086 83.6686L99.3828 82.0686C99.6861 81.9625 100.02 81.98 100.31 82.1172C100.6 82.2543 100.823 82.4999 100.931 82.8C101.038 83.1 101.02 83.43 100.882 83.7171C100.743 84.0043 100.495 84.2253 100.191 84.3314Z" fill="#00A6C2"/>
<path d="M101.191 88.3314L96.6172 89.9314C96.4671 89.9839 96.3079 90.0066 96.1488 89.9983C95.9898 89.99 95.8339 89.9508 95.6902 89.8828C95.5465 89.8149 95.4177 89.7197 95.3111 89.6025C95.2046 89.4854 95.1225 89.3486 95.0694 89.2C95.0163 89.0514 94.9933 88.894 95.0017 88.7366C95.0101 88.5792 95.0498 88.4251 95.1184 88.2829C95.1871 88.1407 95.2833 88.0132 95.4018 87.9078C95.5202 87.8025 95.6584 87.7212 95.8086 87.6686L100.383 86.0686C100.533 86.0161 100.692 85.9934 100.851 86.0017C101.01 86.01 101.166 86.0492 101.31 86.1172C101.454 86.1851 101.582 86.2803 101.689 86.3975C101.795 86.5146 101.878 86.6514 101.931 86.8C101.984 86.9486 102.007 87.106 101.998 87.2634C101.99 87.4208 101.95 87.5749 101.882 87.7171C101.813 87.8593 101.717 87.9868 101.598 88.0922C101.48 88.1975 101.342 88.2788 101.191 88.3314Z" fill="#00A6C2"/>
<path d="M103.191 91.3314L98.6172 92.9314C98.3139 93.0375 97.9805 93.02 97.6902 92.8828C97.3999 92.7457 97.1766 92.5001 97.0694 92.2C96.9621 91.8999 96.9798 91.57 97.1184 91.2829C97.257 90.9957 97.5053 90.7747 97.8086 90.6686L102.383 89.0686C102.533 89.0161 102.692 88.9934 102.851 89.0017C103.01 89.01 103.166 89.0492 103.31 89.1172C103.454 89.1851 103.582 89.2803 103.689 89.3975C103.795 89.5146 103.878 89.6514 103.931 89.8C103.984 89.9486 104.007 90.106 103.998 90.2634C103.99 90.4208 103.95 90.5749 103.882 90.7171C103.813 90.8593 103.717 90.9868 103.598 91.0922C103.48 91.1976 103.342 91.2788 103.191 91.3314Z" fill="#00A6C2"/>
<path d="M104.99 64.0636L7.5166 98.4531L7.68118 98.9176L105.154 64.5281L104.99 64.0636Z" fill="#3F3D56"/>
<path d="M111.564 105.562L29.0502 134.539C27.01 135.253 24.7681 135.134 22.8163 134.208C20.8644 133.282 19.362 131.625 18.6387 129.6L4.46407 89.7791C3.74535 87.7527 3.86524 85.5259 4.79741 83.5872C5.72959 81.6485 7.39794 80.1562 9.43644 79.4377L91.9498 50.4609C93.99 49.7471 96.2319 49.8661 98.1837 50.792C100.136 51.7179 101.638 53.375 102.361 55.3998L116.536 95.2209C117.255 97.2473 117.135 99.4741 116.203 101.413C115.27 103.352 113.602 104.844 111.564 105.562ZM9.60127 79.9008C7.68632 80.5757 6.11908 81.9775 5.2434 83.7987C4.36772 85.6199 4.25511 87.7118 4.93025 89.6153L19.1049 129.436C19.7844 131.339 21.1957 132.895 23.0293 133.765C24.8628 134.635 26.9689 134.747 28.8854 134.076L111.399 105.099C113.314 104.424 114.881 103.022 115.757 101.201C116.632 99.3801 116.745 97.2882 116.07 95.3846L101.895 55.5635C101.216 53.6615 99.8043 52.1048 97.9707 51.235C96.1372 50.3652 94.0311 50.2534 92.1146 50.924L9.60127 79.9008Z" fill="#3F3D56"/>
</svg>
