<svg width="256" height="164" viewBox="0 0 256 164" fill="none" xmlns="http://www.w3.org/2000/svg">
<g clip-path="url(#clip0_226_3015)">
<path d="M197.037 123.874C207.567 97.0858 204.381 67.1736 190.8 44.2004L48.6369 64.2303L184.875 35.3387C127.456 -37.5203 15.6994 10.8062 26.4722 102.796L197.037 123.874Z" fill="#E6E6E6"/>
<path d="M203.307 94.2621H22.1885V151.652H203.307V94.2621Z" fill="#8D8D8D"/>
<path d="M72.7005 87.2634C74.3255 88.5475 74.9198 88.9621 75.2658 88.9095C92.0325 93.8778 77.334 99.7003 69.1875 89.8168L72.7005 87.2634Z" fill="#FFB8B8"/>
<path d="M17.374 139.754V151.418L25.6274 150.952L23.3349 138.82L17.374 139.754Z" fill="#FFB8B8"/>
<path d="M63.2263 139.754V151.418L54.9727 150.952L57.2654 138.82L63.2263 139.754Z" fill="#FFB8B8"/>
<path d="M38.0076 79.5648L50.3878 79.0983C78.9474 109.565 68.1468 102.616 67.3533 144.419L52.2219 139.754L55.4316 110.826C55.4333 110.825 56.2783 110.251 55.5759 110.238C51.1828 111.774 47.9775 92.7542 38.4661 94.962C27.6426 94.4352 25.8806 110.773 21.5006 110.826L24.7103 139.754L9.57893 144.419C7.88476 98.4817 -0.418435 108.859 26.5444 79.0983L38.0076 79.5648Z" fill="#2F2E41"/>
<path d="M19.6662 147.686C19.6662 147.686 17.8321 143.953 15.5394 145.819C13.2468 147.686 7.74447 153.285 7.74447 153.285C7.74447 153.285 -5.55281 159.35 2.70067 163.083C10.9542 166.815 17.8321 157.95 17.8321 157.95C25.6934 156.282 30.2278 155.214 26.0589 146.489C23.692 147.531 20.3424 148.738 19.6662 147.686Z" fill="#2F2E41"/>
<path d="M60.9339 147.686C60.9339 147.686 62.768 143.953 65.0606 145.819C67.3533 147.686 72.8556 153.285 72.8556 153.285C72.8556 153.285 86.1529 159.35 77.8994 163.083C69.6459 166.815 62.768 157.95 62.768 157.95C54.9067 156.282 50.3722 155.214 54.5412 146.489C56.9081 147.531 60.2577 148.738 60.9339 147.686Z" fill="#2F2E41"/>
<path d="M50.3878 26.8413C49.7058 38.4564 34.1274 37.4338 33.8809 26.8412C34.5628 15.2262 50.1412 16.2488 50.3878 26.8413Z" fill="#FFB8B8"/>
<path d="M38.4658 32.9068C42.4771 45.2433 33.0067 38.5269 46.2608 48.304L51.3046 38.0392C51.3046 38.0392 47.6364 36.6395 48.0949 31.5071L38.4658 32.9068Z" fill="#FFB8B8"/>
<path d="M63.2264 39.9055L49.5579 36.7309C49.9423 45.1173 41.147 43.4294 39.6123 39.2108L26.5442 46.9042C32.0293 67.6917 30.6392 68.5494 23.3346 81.8977C20.5468 84.4881 24.7159 85.9728 28.3454 84.5553C31.1137 82.8168 32.5195 81.2718 35.4858 81.6649C49.502 84.6347 61.1703 85.3356 63.0169 84.1752C63.6777 83.2129 62.9978 40.0726 63.2264 39.9055Z" fill="#FFDE00"/>
<path d="M59.5576 40.8387C60.0161 40.8387 62.3781 39.7087 62.3781 39.7087C69.2499 39.5908 73.8613 86.6263 74.2305 87.9633L69.6452 91.2294L62.3088 72.0996L59.5576 40.8387Z" fill="#FFD700"/>
<path d="M27.4609 95.4286C27.6954 97.1895 28.0943 116.964 35.0559 107.727C35.9692 100.988 32.864 98.976 32.0462 94.4954L27.4609 95.4286Z" fill="#FFB8B8"/>
<path d="M29.2953 46.9043L27.8904 46.1117C24.1238 45.9858 25.3109 56.1311 23.7174 63.561C22.4155 72.2166 22.7862 81.7606 24.3136 94.5206C24.4471 99.203 32.689 96.2532 33.8806 95.8952C33.8806 95.8952 31.1294 76.7654 32.505 73.4993C33.8806 70.2333 29.2953 46.9043 29.2953 46.9043Z" fill="#FFD700"/>
<path d="M50.0262 18.6997C48.7529 16.5956 46.7598 15.0452 44.4305 14.3467L42.7196 15.7394L43.3848 14.115C42.8254 14.0281 42.2593 13.9948 41.6938 14.0155L40.1545 16.0294L40.7916 14.0845C34.1863 14.8062 30.2783 22.522 33.7074 27.9221C34.2364 26.2679 34.8784 24.7158 35.4074 23.0617C35.8231 23.1193 36.2445 23.1214 36.6607 23.0679L37.3043 21.5398L37.4841 23.0032C39.4788 22.8264 42.4375 22.4382 44.3286 22.0824L44.1447 20.9598L45.2448 21.8927C45.8242 21.757 46.1682 21.6339 46.1398 21.5398C47.5462 23.847 48.9398 25.3206 50.3462 27.6278C50.8801 24.3735 51.8225 21.6684 50.0262 18.6997Z" fill="#2F2E41"/>
<path d="M192.465 101.185H152.466V120.492H192.465V101.185Z" fill="white"/>
<path d="M184.902 105.229H160.03V107.544H184.902V105.229Z" fill="#E6E6E6"/>
<path d="M184.902 109.681H160.03V111.996H184.902V109.681Z" fill="#E6E6E6"/>
<path d="M184.902 114.133H160.03V116.448H184.902V114.133Z" fill="#E6E6E6"/>
<path d="M117.633 105.771L116.332 103.478L115.031 101.185L113.73 103.478L112.429 105.771H113.827V112.412H116.235V105.771H117.633Z" fill="white"/>
<path d="M205.795 153.02C211.711 153.02 216.508 148.139 216.508 142.119C216.508 136.098 211.711 131.217 205.795 131.217C199.878 131.217 195.081 136.098 195.081 142.119C195.081 148.139 199.878 153.02 205.795 153.02Z" fill="#3F3D56"/>
<path d="M207.743 146.95C210.365 146.95 212.491 144.787 212.491 142.119C212.491 139.45 210.365 137.287 207.743 137.287C205.121 137.287 202.995 139.45 202.995 142.119C202.995 144.787 205.121 146.95 207.743 146.95Z" fill="#E6E6E6"/>
<path d="M199.038 149.737L222.413 159.648L221.683 162.002L208.23 160.453L185.464 150.171L198.125 151.658L199.038 149.737Z" fill="#3F3D56"/>
<path d="M219.7 159.201L248.772 62.1618L255.852 49.3685L255.877 49.245C255.899 49.1321 256.419 46.4581 255.141 44.5216C254.818 44.0402 254.402 43.6315 253.918 43.3211C253.433 43.0106 252.891 42.805 252.325 42.7171C248.418 41.9716 239.677 41.6043 239.307 41.589L239.237 41.5861L239.168 41.5957C238.929 41.6289 233.343 42.4598 232.08 47.4237L226.002 58.6793L225.978 58.7594L198.464 150.804L199.978 151.273L227.468 59.3082L233.566 48.0146L233.591 47.9108C234.484 44.1754 238.753 43.3015 239.321 43.2015C240.214 43.2403 248.43 43.6123 252.034 44.2999C252.392 44.3496 252.735 44.4743 253.043 44.6661C253.352 44.858 253.617 45.1128 253.823 45.4144C254.611 46.6017 254.414 48.3498 254.345 48.8094L247.308 61.5243L247.283 61.6082L218.186 158.732L219.7 159.201Z" fill="#3F3D56"/>
<path d="M223.951 67.9855L223.67 69.5704L244.666 73.4291L244.947 71.8443L223.951 67.9855Z" fill="#3F3D56"/>
<path d="M220.029 81.1656L219.713 82.7435L240.559 87.0729L240.876 85.4949L220.029 81.1656Z" fill="#3F3D56"/>
<path d="M213.048 104.737L212.612 106.286L232.965 112.212L233.4 110.663L213.048 104.737Z" fill="#3F3D56"/>
<path d="M226.811 150.425L227.388 148.926L207.633 141.054L206.663 130.366L225.101 137.374L231.075 146.169L232.377 145.254L226.121 136.042L204.855 127.96L206.147 142.192L226.811 150.425Z" fill="#3F3D56"/>
<path d="M233.674 163.426C239.591 163.426 244.388 158.546 244.388 152.525C244.388 146.504 239.591 141.623 233.674 141.623C227.758 141.623 222.961 146.504 222.961 152.525C222.961 158.546 227.758 163.426 233.674 163.426Z" fill="#3F3D56"/>
<path d="M236.475 157.852C239.097 157.852 241.223 155.689 241.223 153.02C241.223 150.352 239.097 148.189 236.475 148.189C233.852 148.189 231.727 150.352 231.727 153.02C231.727 155.689 233.852 157.852 236.475 157.852Z" fill="#E6E6E6"/>
</g>
<defs>
<clipPath id="clip0_226_3015">
<rect width="256" height="164" fill="white"/>
</clipPath>
</defs>
</svg>
