<svg width="230" height="174" viewBox="0 0 230 174" fill="none" xmlns="http://www.w3.org/2000/svg">
<path d="M167.706 60.8941C167.922 60.9922 168.129 61.1073 168.326 61.2384L188.015 52.8625L188.718 47.6929L196.586 47.6447L196.121 59.5023L170.132 66.3533C170.077 66.5332 170.012 66.7096 169.935 66.8816C169.56 67.6807 168.955 68.3513 168.198 68.8092C167.441 69.2671 166.566 69.4919 165.681 69.4553C164.796 69.4188 163.942 69.1225 163.226 68.6037C162.51 68.0849 161.963 67.3667 161.655 66.5394C161.347 65.712 161.291 64.8123 161.494 63.9534C161.697 63.0944 162.15 62.3144 162.797 61.7114C163.443 61.1083 164.254 60.7091 165.128 60.5639C166.001 60.4186 166.898 60.5338 167.706 60.895L167.706 60.8941Z" fill="#FEB8B8"/>
<path d="M199.446 168.338H194.064L191.504 147.648H199.447L199.446 168.338Z" fill="#FEB8B8"/>
<path d="M190.22 166.806H200.6V173.318H183.685C183.685 171.59 184.373 169.933 185.599 168.712C186.824 167.49 188.487 166.804 190.22 166.804V166.806Z" fill="#2F2E41"/>
<path d="M220.378 166.823L215.023 167.348L210.439 147.007L218.345 146.233L220.378 166.823Z" fill="#FEB8B8"/>
<path d="M211.043 166.2L221.37 165.186L222.011 171.668L205.181 173.32C205.011 171.601 205.533 169.885 206.632 168.55C207.732 167.215 209.318 166.37 211.042 166.2H211.043Z" fill="#2F2E41"/>
<path d="M200.945 25.7467C206.9 25.7467 211.727 20.9353 211.727 15.0001C211.727 9.06492 206.9 4.25351 200.945 4.25351C194.99 4.25351 190.163 9.06492 190.163 15.0001C190.163 20.9353 194.99 25.7467 200.945 25.7467Z" fill="#FEB8B8"/>
<path d="M192.862 164.154C192.399 164.155 191.951 163.993 191.596 163.697C191.242 163.401 191.003 162.989 190.923 162.535C188.139 147.125 179.032 96.7273 178.814 95.3302C178.809 95.2981 178.806 95.2657 178.807 95.2332V91.4751C178.806 91.3382 178.849 91.2047 178.929 91.0935L180.132 89.4154C180.189 89.3346 180.264 89.268 180.351 89.2206C180.438 89.1731 180.535 89.1463 180.634 89.142C187.493 88.8216 209.952 87.8822 211.037 89.2333C212.127 90.5897 211.74 94.7059 211.652 95.5166L211.656 95.6012L221.747 159.92C221.826 160.433 221.699 160.957 221.394 161.377C221.089 161.798 220.629 162.082 220.116 162.167L213.813 163.202C213.344 163.277 212.863 163.182 212.458 162.933C212.053 162.685 211.751 162.3 211.607 161.849C209.658 155.64 203.122 134.756 200.857 126.675C200.844 126.622 200.813 126.575 200.767 126.544C200.722 126.513 200.667 126.5 200.613 126.508C200.558 126.516 200.509 126.544 200.475 126.586C200.44 126.629 200.423 126.683 200.426 126.737C200.539 134.441 200.813 154.094 200.909 160.882L200.919 161.614C200.923 162.109 200.741 162.587 200.408 162.955C200.076 163.322 199.617 163.552 199.122 163.598L193.045 164.147C192.984 164.152 192.923 164.155 192.862 164.154Z" fill="#2F2E41"/>
<path d="M194.102 29.9725C192.22 31.0875 191.094 33.136 190.448 35.2242C189.252 39.0839 188.532 43.0745 188.304 47.1078L187.621 59.1831L179.168 91.1988C186.495 97.3774 190.72 95.9728 200.583 90.9192C210.445 85.8655 211.572 92.604 211.572 92.604L213.544 65.363L216.361 35.5955C215.729 34.8365 215.013 34.1505 214.227 33.5505C211.623 31.5316 208.593 30.1283 205.365 29.4461C202.138 28.7639 198.797 28.8208 195.595 29.6124L194.102 29.9725Z" fill="#E6E6E6"/>
<path d="M191.356 67.3598C191.584 67.4446 191.804 67.547 192.015 67.6662L211.484 57.9526L211.807 52.6907L219.838 52.1388L220.269 64.1336L194.251 72.7103C194.039 73.619 193.554 74.4418 192.861 75.0691C192.168 75.6964 191.3 76.0986 190.372 76.2222C189.444 76.3457 188.5 76.1848 187.667 75.7607C186.833 75.3366 186.148 74.6696 185.704 73.8483C185.26 73.0269 185.077 72.0903 185.18 71.163C185.283 70.2356 185.667 69.3615 186.281 68.6569C186.895 67.9524 187.709 67.4507 188.616 67.2187C189.522 66.9867 190.478 67.0354 191.357 67.3583L191.356 67.3598Z" fill="#FEB8B8"/>
<path d="M216.221 35.7297C221.011 37.4146 221.855 55.6707 221.855 55.6707C216.219 52.5816 209.457 57.6365 209.457 57.6365C209.457 57.6365 208.048 52.8619 206.358 46.6839C205.847 44.946 205.786 43.1077 206.18 41.34C206.574 39.5722 207.411 37.9326 208.612 36.5737C208.612 36.5737 211.43 34.0439 216.221 35.7297Z" fill="#E6E6E6"/>
<path d="M210.611 17.8413C209.268 16.7701 207.435 18.7163 207.435 18.7163L206.36 9.07818C206.36 9.07818 199.644 9.88022 195.344 8.81031C191.044 7.74041 190.373 12.6947 190.373 12.6947C190.152 10.6939 190.107 8.67756 190.239 6.66894C190.508 4.25879 194 1.84863 200.18 0.241758C206.36 -1.36512 209.584 5.5978 209.584 5.5978C213.885 7.73854 211.956 18.9136 210.611 17.8413Z" fill="#2F2E41"/>
<path d="M230 173.319H0.101562V174H230V173.319Z" fill="#E6E6E6"/>
<path d="M22.2793 161.302C23.2631 161.646 24.3193 161.733 25.3462 161.552C26.3732 161.372 27.3362 160.931 28.1426 160.272C30.1962 158.554 30.8401 155.724 31.3638 153.103L32.9134 145.352L29.6693 147.578C27.3363 149.179 24.9509 150.832 23.3353 153.151C21.7197 155.47 21.0148 158.636 22.3127 161.145" fill="#E6E6E6"/>
<path d="M22.7807 171.226C22.3723 168.261 21.9523 165.258 22.2388 162.261C22.4933 159.599 23.3079 157 24.9666 154.869C25.8469 153.739 26.9181 152.772 28.132 152.01C28.4485 151.81 28.74 152.31 28.4248 152.509C26.3239 153.832 24.6989 155.785 23.784 158.088C22.7739 160.649 22.6117 163.44 22.7863 166.16C22.8917 167.806 23.1146 169.44 23.3394 171.072C23.3571 171.146 23.346 171.223 23.3084 171.289C23.2708 171.355 23.2094 171.405 23.1368 171.427C23.0626 171.447 22.9836 171.437 22.9168 171.399C22.85 171.362 22.8009 171.299 22.7801 171.225L22.7807 171.226Z" fill="#F2F2F2"/>
<path d="M25.7197 166.468C26.1416 167.108 26.7216 167.628 27.4037 167.979C28.0858 168.329 28.847 168.499 29.6141 168.472C31.5855 168.379 33.2292 167.007 34.7085 165.706L39.0846 161.855L36.1885 161.717C34.1059 161.618 31.9693 161.525 29.9842 162.166C27.9991 162.806 26.1709 164.346 25.8083 166.392" fill="#E6E6E6"/>
<path d="M21.6267 172.93C23.5909 169.464 25.8725 165.611 29.9465 164.379C31.0792 164.038 32.267 163.916 33.4458 164.019C33.8175 164.05 33.7246 164.622 33.3523 164.59C31.3763 164.426 29.4041 164.947 27.7678 166.063C26.193 167.131 24.9671 168.616 23.9295 170.191C23.2938 171.154 22.7245 172.162 22.1552 173.166C21.9738 173.487 21.4437 173.255 21.6267 172.93Z" fill="#F2F2F2"/>
<path d="M160.174 72.9004H61.7494C61.2662 72.8999 60.8029 72.7083 60.4613 72.3677C60.1196 72.0272 59.9273 71.5654 59.9268 71.0838V46.7495C59.9273 46.2679 60.1196 45.8061 60.4613 45.4656C60.8029 45.125 61.2662 44.9334 61.7494 44.9329H160.174C160.657 44.9334 161.12 45.125 161.462 45.4656C161.803 45.8061 161.996 46.2679 161.996 46.7495V71.0838C161.996 71.5654 161.803 72.0272 161.462 72.3677C161.12 72.7083 160.657 72.8999 160.174 72.9004ZM61.7494 45.6597C61.4594 45.66 61.1814 45.775 60.9764 45.9793C60.7714 46.1837 60.656 46.4608 60.6557 46.7498V71.0841C60.6559 71.3732 60.7713 71.6503 60.9763 71.8547C61.1814 72.059 61.4594 72.174 61.7494 72.1742H160.174C160.464 72.174 160.742 72.059 160.947 71.8547C161.152 71.6503 161.267 71.3732 161.267 71.0841V46.7495C161.267 46.4605 161.152 46.1833 160.947 45.9789C160.742 45.7746 160.464 45.6596 160.174 45.6594L61.7494 45.6597Z" fill="#E6E6E6"/>
<path d="M94.1896 53.0493C93.8614 53.0493 93.5466 53.1792 93.3146 53.4105C93.0825 53.6418 92.9521 53.9555 92.9521 54.2826C92.9521 54.6097 93.0825 54.9234 93.3146 55.1547C93.5466 55.386 93.8614 55.516 94.1896 55.516H152.525C152.853 55.516 153.168 55.386 153.4 55.1547C153.632 54.9234 153.763 54.6097 153.763 54.2826C153.763 53.9555 153.632 53.6418 153.4 53.4105C153.168 53.1792 152.853 53.0493 152.525 53.0493H94.1896Z" fill="#E6E6E6"/>
<path d="M94.1896 60.4497C93.8614 60.4497 93.5466 60.5797 93.3146 60.811C93.0825 61.0423 92.9521 61.356 92.9521 61.6831C92.9521 62.0102 93.0825 62.3239 93.3146 62.5552C93.5466 62.7865 93.8614 62.9164 94.1896 62.9164H119.292C119.62 62.9164 119.935 62.7865 120.167 62.5552C120.399 62.3239 120.529 62.0102 120.529 61.6831C120.529 61.356 120.399 61.0423 120.167 60.811C119.935 60.5797 119.62 60.4497 119.292 60.4497H94.1896Z" fill="#E6E6E6"/>
<path d="M77.1121 65.3269C81.2126 65.3269 84.5368 62.0137 84.5368 57.9268C84.5368 53.8398 81.2126 50.5266 77.1121 50.5266C73.0116 50.5266 69.6875 53.8398 69.6875 57.9268C69.6875 62.0137 73.0116 65.3269 77.1121 65.3269Z" fill="#204459"/>
<path d="M75.9448 62.0395C75.6953 62.0399 75.4525 61.9594 75.253 61.8102L75.2405 61.8009L72.6347 59.8139C72.3907 59.6277 72.231 59.3525 72.1907 59.0488C72.1504 58.7452 72.2327 58.4381 72.4195 58.1949C72.6064 57.9518 72.8825 57.7926 73.1872 57.7524C73.4918 57.7122 73.8 57.7943 74.0439 57.9805L75.7318 59.2704L79.7204 54.0841C79.9072 53.8413 80.1831 53.6823 80.4874 53.6422C80.7917 53.6022 81.0995 53.6842 81.3432 53.8703L81.3186 53.9045L81.3441 53.8703C81.5875 54.0567 81.7467 54.3317 81.7869 54.635C81.827 54.9383 81.7448 55.2451 81.5583 55.488L76.867 61.5892C76.7585 61.7297 76.6189 61.8433 76.4592 61.9214C76.2995 61.9994 76.1239 62.0397 75.946 62.0392L75.9448 62.0395Z" fill="#FFD700"/>
</svg>
