<svg width="637" height="402" viewBox="0 0 637 402" fill="none" xmlns="http://www.w3.org/2000/svg">
<path d="M69.5436 196.272L69.4056 190.807C69.362 189.006 69.2967 187.225 69.2786 185.455L69.5436 185.719C65.2582 185.768 60.973 185.873 56.6879 185.878L43.8321 185.937L44.3169 185.455L44.2645 196.272L43.8321 195.842C45.9504 195.859 48.0634 195.85 50.1878 195.895L56.5756 196.004L69.5436 196.272ZM69.5436 196.272L56.7997 196.542L50.3323 196.65C48.1711 196.696 45.9989 196.687 43.8321 196.704L43.4012 196.708L43.3994 196.272L43.3471 185.455L43.3447 184.97L43.8321 184.973L56.6879 185.033C60.973 185.037 65.2582 185.142 69.5436 185.191L69.811 185.194L69.8088 185.455C69.7905 187.291 69.7253 189.116 69.6813 190.921L69.5436 196.272Z" fill="#E7E8E5"/>
<path d="M240.795 269.794L240.657 264.328C240.614 262.527 240.549 260.746 240.53 258.976L240.795 259.24C236.51 259.29 232.225 259.393 227.94 259.399L215.084 259.459L215.569 258.976L215.516 269.794L215.084 269.363C217.202 269.38 219.315 269.371 221.439 269.417L227.827 269.525L240.795 269.794ZM240.795 269.794L228.051 270.063L221.584 270.172C219.423 270.217 217.25 270.207 215.084 270.225L214.653 270.228L214.651 269.794L214.599 258.976L214.597 258.491L215.084 258.493L227.94 258.554C232.225 258.559 236.51 258.663 240.795 258.712L241.063 258.715L241.06 258.976C241.042 260.812 240.977 262.637 240.933 264.442L240.795 269.794Z" fill="#E7E8E5"/>
<path d="M55.2009 209.914L55.0633 204.448C55.0193 202.647 54.9544 200.867 54.9362 199.095L55.2009 199.359C50.9158 199.409 46.6303 199.513 42.3451 199.518L29.4894 199.579L29.9741 199.095L29.9221 209.914L29.4894 209.483C31.6076 209.5 33.7206 209.49 35.845 209.536L42.2333 209.644L55.2009 209.914ZM55.2009 209.914L42.4575 210.183L35.9895 210.291C33.8287 210.337 31.6562 210.328 29.4894 210.344L29.0585 210.348L29.0566 209.914L29.0043 199.095L29.002 198.611L29.4894 198.613L42.3451 198.674C46.6303 198.679 50.9158 198.782 55.2009 198.832L55.4686 198.835L55.466 199.095C55.4479 200.931 55.3826 202.757 55.339 204.562L55.2009 209.914Z" fill="#E7E8E5"/>
<path d="M83.8863 209.914H58.1748V199.095H83.8863V209.914Z" fill="#E7E8E5"/>
<path d="M303.271 161.365L303.133 155.899C303.089 154.098 303.024 152.317 303.006 150.547L303.271 150.811C298.986 150.86 294.7 150.964 290.415 150.969L277.56 151.03L278.044 150.547L277.992 161.365L277.56 160.934C279.677 160.951 281.79 160.941 283.915 160.988L290.303 161.096L303.271 161.365ZM303.271 161.365L290.527 161.634L284.059 161.743C281.899 161.788 279.726 161.778 277.56 161.796L277.129 161.799L277.127 161.365L277.074 150.547L277.072 150.062L277.56 150.064L290.415 150.125C294.7 150.13 298.986 150.234 303.271 150.283L303.539 150.286L303.536 150.547C303.517 152.382 303.452 154.208 303.409 156.012L303.271 161.365Z" fill="#E7E8E5"/>
<path d="M288.927 175.006H263.216V164.188H288.927V175.006Z" fill="#E7E8E5"/>
<path d="M317.614 175.006L317.476 169.54C317.432 167.739 317.367 165.958 317.348 164.188L317.614 164.452C313.328 164.501 309.043 164.605 304.758 164.61L291.901 164.671L292.387 164.188L292.335 175.005L291.901 174.575C294.02 174.591 296.133 174.583 298.257 174.628L304.645 174.736L317.614 175.006ZM317.614 175.006L304.87 175.275L298.402 175.383C296.241 175.428 294.069 175.42 291.901 175.436L291.471 175.44L291.469 175.005L291.417 164.188L291.415 163.702L291.901 163.705L304.758 163.766C309.043 163.771 313.328 163.874 317.614 163.924L317.881 163.927L317.879 164.188C317.86 166.024 317.795 167.849 317.751 169.654L317.614 175.006Z" fill="#E7E8E5"/>
<path d="M612.138 164.259L612 158.793C611.956 156.993 611.891 155.212 611.873 153.441L612.138 153.705C607.853 153.754 603.567 153.858 599.282 153.863L586.427 153.924L586.911 153.441L586.859 164.259L586.427 163.828C588.545 163.845 590.657 163.836 592.782 163.881L599.17 163.989L612.138 164.259ZM612.138 164.259L599.394 164.528L592.926 164.637C590.766 164.683 588.593 164.673 586.427 164.689L585.996 164.693L585.994 164.259L585.941 153.441L585.939 152.956L586.427 152.958L599.282 153.019C603.567 153.024 607.853 153.128 612.138 153.177L612.406 153.181L612.403 153.441C612.385 155.277 612.32 157.102 612.276 158.907L612.138 164.259Z" fill="#E7E8E5"/>
<path d="M612.138 11.3037L612 5.83845C611.956 4.03733 611.891 2.25652 611.873 0.486329L612.138 0.75026C607.853 0.799566 603.567 0.903001 599.282 0.907835L586.427 0.968732L586.911 0.486329L586.859 11.3037L586.427 10.8725C588.545 10.8899 590.657 10.8812 592.782 10.9257L599.17 11.0349L612.138 11.3037ZM612.138 11.3037L599.394 11.5734L592.926 11.6817C590.766 11.7272 588.593 11.7175 586.427 11.7349L585.996 11.7378L585.994 11.3037L585.941 0.486329L585.939 0.000999451L586.427 0.00293541L599.282 0.0638313C603.567 0.0686655 607.853 0.173092 612.138 0.222398L612.406 0.225277L612.403 0.486329C612.385 2.32129 612.32 4.14657 612.276 5.95156L612.138 11.3037Z" fill="#E7E8E5"/>
<path d="M626.481 24.9441H600.769V14.1267H626.481V24.9441Z" fill="#E7E8E5"/>
<path d="M45.491 11.3153L45.3533 5.85007C45.3093 4.04895 45.2445 2.26809 45.2262 0.497902L45.491 0.761833C41.2058 0.811139 36.9203 0.914621 32.6352 0.919456L19.7794 0.980351L20.2641 0.497902L20.2122 11.3153L19.7794 10.8841C21.8977 10.9015 24.0107 10.8919 26.135 10.9383L32.5233 11.0465L45.491 11.3153ZM45.491 11.3153L32.7475 11.585L26.2795 11.6933C24.1187 11.7388 21.9462 11.7291 19.7794 11.7465L19.3485 11.7494L19.3467 11.3153L19.2943 0.497902L19.292 0.0125723L19.7794 0.0145082L32.6352 0.0754519C36.9203 0.080286 41.2058 0.184665 45.491 0.233971L45.7587 0.236897L45.7561 0.497902C45.7379 2.33383 45.6727 4.15819 45.6291 5.96318L45.491 11.3153Z" fill="#E7E8E5"/>
<path d="M34.1223 335.675L33.9842 330.323C33.9406 328.518 33.8754 326.693 33.8571 324.857L33.8545 324.597L34.1223 324.593C38.4074 324.544 42.6925 324.441 46.978 324.436L59.8338 324.374L60.3212 324.372L60.3186 324.857L60.2665 335.675L60.2643 336.11L59.8338 336.106C57.667 336.089 55.4944 336.098 53.3333 336.053L46.8658 335.944L34.1223 335.675ZM34.1223 335.675L47.0899 335.406L53.4781 335.297C55.6021 335.252 57.7151 335.262 59.8338 335.244L59.401 335.675L59.3487 324.857L59.8338 325.34L46.978 325.28C42.6925 325.275 38.4074 325.17 34.1223 325.121L34.387 324.857C34.3688 326.628 34.3036 328.408 34.26 330.209L34.1223 335.675Z" fill="#E7E8E5"/>
<path d="M19.7793 349.316H45.4909V338.499H19.7793V349.316Z" fill="#E7E8E5"/>
<path d="M600.769 335.687L600.631 330.335C600.587 328.53 600.522 326.705 600.504 324.869L600.502 324.609L600.769 324.605C605.055 324.555 609.34 324.452 613.625 324.447L626.481 324.386L626.968 324.384L626.966 324.869L626.913 335.687L626.911 336.121L626.481 336.117C624.314 336.101 622.142 336.11 619.98 336.064L613.513 335.956L600.769 335.687ZM600.769 335.687L613.737 335.417L620.125 335.309C622.25 335.264 624.362 335.273 626.481 335.256L626.048 335.687L625.996 324.869L626.481 325.352L613.625 325.291C609.34 325.287 605.055 325.182 600.769 325.133L601.034 324.869C601.016 326.64 600.951 328.42 600.907 330.221L600.769 335.687Z" fill="#E7E8E5"/>
<path d="M395.771 274.954L395.909 280.42C395.952 282.221 396.018 284.002 396.036 285.772L395.771 285.508C400.056 285.459 404.342 285.355 408.626 285.35L421.482 285.289L420.997 285.772L421.049 274.954L421.482 275.385C419.363 275.368 417.251 275.378 415.126 275.332L408.738 275.223L395.771 274.954ZM395.771 274.954L408.514 274.685L414.981 274.576C417.143 274.531 419.315 274.541 421.482 274.523L421.913 274.52L421.915 274.954L421.967 285.772L421.969 286.257L421.482 286.255L408.626 286.194C404.342 286.19 400.056 286.085 395.771 286.036L395.503 286.033L395.506 285.772C395.523 283.936 395.589 282.112 395.633 280.307L395.771 274.954Z" fill="#E7E8E5"/>
<path d="M410.113 261.313H435.825V272.131H410.113V261.313Z" fill="#E7E8E5"/>
<path d="M122.308 146.155H393.302V14.1421H122.308V146.155Z" fill="white"/>
<path d="M393.302 94.5537V148.345H281.248V57.6456H300.431V83.6609H305.377V68.9406H329.772V92.2566H333.009V37.5394H354.214V52.5546H365.094V71.2377H368.378V59.4854H387.658V94.5537H393.302Z" fill="#E7E8E5"/>
<path d="M286.845 65.8933H283.598V60.9211H286.845V65.8933Z" fill="white"/>
<path d="M292.472 65.8933H289.226V60.9211H292.472V65.8933Z" fill="white"/>
<path d="M298.1 65.8933H294.854V60.9211H298.1V65.8933Z" fill="white"/>
<path d="M286.845 73.3754H283.598V68.4032H286.845V73.3754Z" fill="white"/>
<path d="M292.472 73.3754H289.226V68.4032H292.472V73.3754Z" fill="white"/>
<path d="M298.1 73.3754H294.854V68.4032H298.1V73.3754Z" fill="white"/>
<path d="M286.845 80.8573H283.598V75.8841H286.845V80.8573Z" fill="white"/>
<path d="M292.472 80.8573H289.226V75.8841H292.472V80.8573Z" fill="white"/>
<path d="M298.1 80.8573H294.854V75.8841H298.1V80.8573Z" fill="white"/>
<path d="M286.845 88.3383H283.598V83.3661H286.845V88.3383Z" fill="white"/>
<path d="M292.472 88.3383H289.226V83.3661H292.472V88.3383Z" fill="white"/>
<path d="M298.1 88.3383H294.854V83.3661H298.1V88.3383Z" fill="white"/>
<path d="M326.837 75.2334H308.146V72.1242H326.837V75.2334Z" fill="white"/>
<path d="M326.837 81.2682H308.146V78.158H326.837V81.2682Z" fill="white"/>
<path d="M326.837 87.3019H308.146V84.1927H326.837V87.3019Z" fill="white"/>
<path d="M326.837 93.3356H308.146V90.2264H326.837V93.3356Z" fill="white"/>
<path d="M326.837 99.3704H308.146V96.2602H326.837V99.3704Z" fill="white"/>
<path d="M326.837 105.404H308.146V102.295H326.837V105.404Z" fill="white"/>
<path d="M326.837 111.439H308.146V108.329H326.837V111.439Z" fill="white"/>
<path d="M326.837 117.472H308.146V114.362H326.837V117.472Z" fill="white"/>
<path d="M379.791 65.3055H374.019V62.3027H379.791V65.3055Z" fill="white"/>
<path d="M379.791 71.1333H374.019V68.1305H379.791V71.1333Z" fill="white"/>
<path d="M379.791 76.9612H374.019V73.9574H379.791V76.9612Z" fill="white"/>
<path d="M379.791 82.788H374.019V79.7851H379.791V82.788Z" fill="white"/>
<path d="M379.791 88.6147H374.019V85.6119H379.791V88.6147Z" fill="white"/>
<path d="M374.019 94.4426H379.791V91.4395H374.019V94.4426Z" fill="white"/>
<path d="M374.019 100.269H379.791V97.2667H374.019V100.269Z" fill="white"/>
<path d="M374.019 106.096H379.791V103.093H374.019V106.096Z" fill="white"/>
<path d="M387.645 65.3055H381.874V62.3027H387.645V65.3055Z" fill="white"/>
<path d="M387.645 71.1333H381.874V68.1305H387.645V71.1333Z" fill="white"/>
<path d="M387.645 76.9612H381.874V73.9574H387.645V76.9612Z" fill="white"/>
<path d="M387.645 82.788H381.874V79.7851H387.645V82.788Z" fill="white"/>
<path d="M381.874 88.6147H387.645V85.6117H381.874V88.6147Z" fill="white"/>
<path d="M381.874 94.4426H387.645V91.4395H381.874V94.4426Z" fill="white"/>
<path d="M381.874 100.269H387.645V97.2667H381.874V100.269Z" fill="white"/>
<path d="M387.645 106.097H381.874V103.093H387.645V106.097Z" fill="white"/>
<path d="M342.236 45.4207H336.222V40.6844H342.236V45.4207Z" fill="white"/>
<path d="M351.201 45.4207H345.187V40.6844H351.201V45.4207Z" fill="white"/>
<path d="M342.236 52.3777H336.222V47.6414H342.236V52.3777Z" fill="white"/>
<path d="M351.201 52.3777H345.187V47.6414H351.201V52.3777Z" fill="white"/>
<path d="M342.236 59.3347H336.222V54.5994H342.236V59.3347Z" fill="white"/>
<path d="M351.201 59.3347H345.187V54.5994H351.201V59.3347Z" fill="white"/>
<path d="M342.236 66.2927H336.222V61.5564H342.236V66.2927Z" fill="white"/>
<path d="M351.201 66.2927H345.187V61.5564H351.201V66.2927Z" fill="white"/>
<path d="M342.236 73.2496H336.222V68.5133H342.236V73.2496Z" fill="white"/>
<path d="M351.201 73.2496H345.187V68.5133H351.201V73.2496Z" fill="white"/>
<path d="M342.236 80.2067H336.222V75.4713H342.236V80.2067Z" fill="white"/>
<path d="M351.201 80.2067H345.187V75.4713H351.201V80.2067Z" fill="white"/>
<path d="M342.236 87.1646H336.222V82.4283H342.236V87.1646Z" fill="white"/>
<path d="M351.201 87.1646H345.187V82.4283H351.201V87.1646Z" fill="white"/>
<path d="M342.236 94.1216H336.222V89.3853H342.236V94.1216Z" fill="white"/>
<path d="M351.201 94.1216H345.187V89.3853H351.201V94.1216Z" fill="white"/>
<path d="M362.313 59.3347H356.3V54.5994H362.313V59.3347Z" fill="white"/>
<path d="M362.313 66.2927H356.3V61.5564H362.313V66.2927Z" fill="white"/>
<path d="M362.313 73.2496H356.3V68.5133H362.313V73.2496Z" fill="white"/>
<path d="M362.313 80.2067H356.3V75.4713H362.313V80.2067Z" fill="white"/>
<path d="M362.313 87.1646H356.3V82.4283H362.313V87.1646Z" fill="white"/>
<path d="M362.313 94.1216H356.3V89.3853H362.313V94.1216Z" fill="white"/>
<path d="M342.236 100.996H336.222V96.2602H342.236V100.996Z" fill="white"/>
<path d="M351.201 100.996H345.187V96.2602H351.201V100.996Z" fill="white"/>
<path d="M362.313 100.996H356.3V96.2602H362.313V100.996Z" fill="white"/>
<path d="M342.236 107.871H336.222V103.135H342.236V107.871Z" fill="white"/>
<path d="M351.201 107.871H345.187V103.135H351.201V107.871Z" fill="white"/>
<path d="M362.313 107.871H356.3V103.135H362.313V107.871Z" fill="white"/>
<path d="M342.236 114.745H336.222V110.01H342.236V114.745Z" fill="white"/>
<path d="M351.201 114.745H345.187V110.01H351.201V114.745Z" fill="white"/>
<path d="M362.313 114.745H356.3V110.01H362.313V114.745Z" fill="white"/>
<path d="M342.236 121.62H336.222V116.884H342.236V121.62Z" fill="white"/>
<path d="M351.201 121.62H345.187V116.884H351.201V121.62Z" fill="white"/>
<path d="M356.3 121.62H362.313V116.884H356.3V121.62Z" fill="white"/>
<path d="M342.236 128.495H336.222V123.759H342.236V128.495Z" fill="white"/>
<path d="M351.201 128.495H345.187V123.759H351.201V128.495Z" fill="white"/>
<path d="M356.3 128.495H362.313V123.759H356.3V128.495Z" fill="white"/>
<path d="M281.246 148.351H121.03V57.6496H140.22V83.6591H145.16V68.9368H169.561V92.2519H172.79V37.5355H193.997V52.5498H204.872V71.2397H208.165V59.4865H227.445V94.5538H233.081V66.05H250.715V44.392H262.702L276.572 44.4645V86.7586H281.24L281.246 148.351Z" fill="#E7E8E5"/>
<path d="M126.63 65.8933H123.383V60.9211H126.63V65.8933Z" fill="white"/>
<path d="M132.257 65.8933H129.011V60.9211H132.257V65.8933Z" fill="white"/>
<path d="M137.885 65.8933H134.638V60.9211H137.885V65.8933Z" fill="white"/>
<path d="M126.63 73.3754H123.383V68.4032H126.63V73.3754Z" fill="white"/>
<path d="M132.257 73.3754H129.011V68.4032H132.257V73.3754Z" fill="white"/>
<path d="M137.885 73.3754H134.638V68.4032H137.885V73.3754Z" fill="white"/>
<path d="M126.63 80.8573H123.383V75.8841H126.63V80.8573Z" fill="white"/>
<path d="M132.257 80.8573H129.011V75.8841H132.257V80.8573Z" fill="white"/>
<path d="M137.885 80.8573H134.638V75.8841H137.885V80.8573Z" fill="white"/>
<path d="M126.63 88.3383H123.383V83.3661H126.63V88.3383Z" fill="white"/>
<path d="M132.257 88.3383H129.011V83.3661H132.257V88.3383Z" fill="white"/>
<path d="M137.885 88.3383H134.638V83.3661H137.885V88.3383Z" fill="white"/>
<path d="M239.037 73.7476H235.791V69.6H239.037V73.7476Z" fill="white"/>
<path d="M244.665 73.7476H241.419V69.6H244.665V73.7476Z" fill="white"/>
<path d="M250.293 73.7476H247.046V69.6H250.293V73.7476Z" fill="white"/>
<path d="M239.037 79.9901H235.791V75.8416H239.037V79.9901Z" fill="white"/>
<path d="M244.665 79.9901H241.419V75.8416H244.665V79.9901Z" fill="white"/>
<path d="M250.293 79.9901H247.046V75.8416H250.293V79.9901Z" fill="white"/>
<path d="M239.037 86.2317H235.791V82.0832H239.037V86.2317Z" fill="white"/>
<path d="M244.665 86.2317H241.419V82.0832H244.665V86.2317Z" fill="white"/>
<path d="M250.293 86.2317H247.046V82.0832H250.293V86.2317Z" fill="white"/>
<path d="M239.037 92.4742H235.791V88.3258H239.037V92.4742Z" fill="white"/>
<path d="M244.665 92.4742H241.419V88.3258H244.665V92.4742Z" fill="white"/>
<path d="M250.293 92.4742H247.046V88.3258H250.293V92.4742Z" fill="white"/>
<path d="M239.037 98.8695H235.791V94.722H239.037V98.8695Z" fill="white"/>
<path d="M244.665 98.8695H241.419V94.722H244.665V98.8695Z" fill="white"/>
<path d="M250.293 98.8695H247.046V94.722H250.293V98.8695Z" fill="white"/>
<path d="M239.037 105.267H235.791V101.118H239.037V105.267Z" fill="white"/>
<path d="M244.665 105.267H241.419V101.118H244.665V105.267Z" fill="white"/>
<path d="M250.293 105.267H247.046V101.118H250.293V105.267Z" fill="white"/>
<path d="M239.037 111.663H235.791V107.515H239.037V111.663Z" fill="white"/>
<path d="M244.665 111.663H241.419V107.515H244.665V111.663Z" fill="white"/>
<path d="M250.293 111.663H247.046V107.515H250.293V111.663Z" fill="white"/>
<path d="M239.037 118.059H235.791V113.911H239.037V118.059Z" fill="white"/>
<path d="M244.665 118.059H241.419V113.911H244.665V118.059Z" fill="white"/>
<path d="M250.293 118.059H247.046V113.911H250.293V118.059Z" fill="white"/>
<path d="M166.622 75.2334H147.93V72.1242H166.622V75.2334Z" fill="white"/>
<path d="M166.622 81.2682H147.93V78.158H166.622V81.2682Z" fill="white"/>
<path d="M166.622 87.3019H147.93V84.1927H166.622V87.3019Z" fill="white"/>
<path d="M166.622 93.3356H147.93V90.2264H166.622V93.3356Z" fill="white"/>
<path d="M166.622 99.3704H147.93V96.2602H166.622V99.3704Z" fill="white"/>
<path d="M166.622 105.404H147.93V102.295H166.622V105.404Z" fill="white"/>
<path d="M166.622 111.439H147.93V108.329H166.622V111.439Z" fill="white"/>
<path d="M166.622 117.472H147.93V114.362H166.622V117.472Z" fill="white"/>
<path d="M219.575 65.3055H213.804V62.3027H219.575V65.3055Z" fill="white"/>
<path d="M219.575 71.1333H213.804V68.1305H219.575V71.1333Z" fill="white"/>
<path d="M219.575 76.9612H213.804V73.9574H219.575V76.9612Z" fill="white"/>
<path d="M219.575 82.788H213.804V79.7851H219.575V82.788Z" fill="white"/>
<path d="M219.575 88.6147H213.804V85.6119H219.575V88.6147Z" fill="white"/>
<path d="M219.575 94.4426H213.804V91.4388H219.575V94.4426Z" fill="white"/>
<path d="M219.575 100.269H213.804V97.2666H219.575V100.269Z" fill="white"/>
<path d="M219.575 106.097H213.804V103.093H219.575V106.097Z" fill="white"/>
<path d="M227.431 65.3055H221.658V62.3027H227.431V65.3055Z" fill="white"/>
<path d="M227.431 71.1333H221.658V68.1305H227.431V71.1333Z" fill="white"/>
<path d="M227.431 76.9612H221.658V73.9574H227.431V76.9612Z" fill="white"/>
<path d="M227.431 82.788H221.658V79.7851H227.431V82.788Z" fill="white"/>
<path d="M227.431 88.6147H221.658V85.6119H227.431V88.6147Z" fill="white"/>
<path d="M227.431 94.4426H221.658V91.4388H227.431V94.4426Z" fill="white"/>
<path d="M227.431 100.269H221.658V97.2666H227.431V100.269Z" fill="white"/>
<path d="M227.431 106.097H221.658V103.093H227.431V106.097Z" fill="white"/>
<path d="M182.021 45.4207H176.008V40.6844H182.021V45.4207Z" fill="white"/>
<path d="M190.986 45.4207H184.973V40.6844H190.986V45.4207Z" fill="white"/>
<path d="M182.021 52.3777H176.008V47.6414H182.021V52.3777Z" fill="white"/>
<path d="M190.986 52.3777H184.973V47.6414H190.986V52.3777Z" fill="white"/>
<path d="M182.021 59.3347H176.008V54.5994H182.021V59.3347Z" fill="white"/>
<path d="M190.986 59.3347H184.973V54.5994H190.986V59.3347Z" fill="white"/>
<path d="M182.021 66.2927H176.008V61.5564H182.021V66.2927Z" fill="white"/>
<path d="M190.986 66.2927H184.973V61.5564H190.986V66.2927Z" fill="white"/>
<path d="M182.021 73.2496H176.008V68.5133H182.021V73.2496Z" fill="white"/>
<path d="M190.986 73.2496H184.973V68.5133H190.986V73.2496Z" fill="white"/>
<path d="M182.021 80.2067H176.008V75.4713H182.021V80.2067Z" fill="white"/>
<path d="M190.986 80.2067H184.973V75.4713H190.986V80.2067Z" fill="white"/>
<path d="M182.021 87.1646H176.008V82.4283H182.021V87.1646Z" fill="white"/>
<path d="M190.986 87.1646H184.973V82.4283H190.986V87.1646Z" fill="white"/>
<path d="M182.021 94.1216H176.008V89.3853H182.021V94.1216Z" fill="white"/>
<path d="M190.986 94.1216H184.973V89.3853H190.986V94.1216Z" fill="white"/>
<path d="M202.098 59.3347H196.084V54.5994H202.098V59.3347Z" fill="white"/>
<path d="M202.098 66.2927H196.084V61.5564H202.098V66.2927Z" fill="white"/>
<path d="M202.098 73.2496H196.084V68.5133H202.098V73.2496Z" fill="white"/>
<path d="M202.098 80.2067H196.084V75.4713H202.098V80.2067Z" fill="white"/>
<path d="M202.098 87.1646H196.084V82.4283H202.098V87.1646Z" fill="white"/>
<path d="M202.098 94.1216H196.084V89.3853H202.098V94.1216Z" fill="white"/>
<path d="M182.021 100.996H176.008V96.2602H182.021V100.996Z" fill="white"/>
<path d="M190.986 100.996H184.973V96.2602H190.986V100.996Z" fill="white"/>
<path d="M202.098 100.996H196.084V96.2602H202.098V100.996Z" fill="white"/>
<path d="M182.021 107.871H176.008V103.135H182.021V107.871Z" fill="white"/>
<path d="M190.986 107.871H184.973V103.135H190.986V107.871Z" fill="white"/>
<path d="M202.098 107.871H196.084V103.135H202.098V107.871Z" fill="white"/>
<path d="M182.021 114.745H176.008V110.01H182.021V114.745Z" fill="white"/>
<path d="M190.986 114.745H184.973V110.01H190.986V114.745Z" fill="white"/>
<path d="M202.098 114.745H196.084V110.01H202.098V114.745Z" fill="white"/>
<path d="M182.021 121.62H176.008V116.884H182.021V121.62Z" fill="white"/>
<path d="M190.986 121.62H184.973V116.884H190.986V121.62Z" fill="white"/>
<path d="M202.098 121.62H196.084V116.884H202.098V121.62Z" fill="white"/>
<path d="M182.021 128.495H176.008V123.759H182.021V128.495Z" fill="white"/>
<path d="M190.986 128.495H184.973V123.759H190.986V128.495Z" fill="white"/>
<path d="M202.098 128.495H196.084V123.759H202.098V128.495Z" fill="white"/>
<path d="M256.412 51.5925H253.165V47.444H256.412V51.5925Z" fill="white"/>
<path d="M262.04 51.5925H258.793V47.444H262.04V51.5925Z" fill="white"/>
<path d="M256.412 57.8342H253.165V53.6857H256.412V57.8342Z" fill="white"/>
<path d="M262.04 57.8342H258.793V53.6857H262.04V57.8342Z" fill="white"/>
<path d="M256.412 64.0768H253.165V59.9283H256.412V64.0768Z" fill="white"/>
<path d="M262.04 64.0768H258.793V59.9283H262.04V64.0768Z" fill="white"/>
<path d="M256.412 70.3174H253.165V66.1699H256.412V70.3174Z" fill="white"/>
<path d="M262.04 70.3174H258.793V66.1699H262.04V70.3174Z" fill="white"/>
<path d="M256.412 76.7146H253.165V72.5661H256.412V76.7146Z" fill="white"/>
<path d="M262.04 76.7146H258.793V72.5661H262.04V76.7146Z" fill="white"/>
<path d="M256.412 83.1108H253.165V78.9623H256.412V83.1108Z" fill="white"/>
<path d="M262.04 83.1108H258.793V78.9623H262.04V83.1108Z" fill="white"/>
<path d="M256.412 89.5072H253.165V85.3587H256.412V89.5072Z" fill="white"/>
<path d="M262.04 89.5072H258.793V85.3587H262.04V89.5072Z" fill="white"/>
<path d="M256.412 95.9034H253.165V91.755H256.412V95.9034Z" fill="white"/>
<path d="M262.04 95.9034H258.793V91.755H262.04V95.9034Z" fill="white"/>
<path d="M256.412 102.368H253.165V98.2199H256.412V102.368Z" fill="white"/>
<path d="M262.04 102.368H258.793V98.2199H262.04V102.368Z" fill="white"/>
<path d="M256.412 108.832H253.165V104.684H256.412V108.832Z" fill="white"/>
<path d="M262.04 108.832H258.793V104.684H262.04V108.832Z" fill="white"/>
<path d="M256.412 115.296H253.165V111.149H256.412V115.296Z" fill="white"/>
<path d="M262.04 115.296H258.793V111.149H262.04V115.296Z" fill="white"/>
<path d="M256.412 121.761H253.165V117.613H256.412V121.761Z" fill="white"/>
<path d="M262.04 121.761H258.793V117.613H262.04V121.761Z" fill="white"/>
<path d="M268.446 51.5925H265.199V47.444H268.446V51.5925Z" fill="white"/>
<path d="M274.074 51.5925H270.827V47.444H274.074V51.5925Z" fill="white"/>
<path d="M268.446 57.8342H265.199V53.6857H268.446V57.8342Z" fill="white"/>
<path d="M274.074 57.8342H270.827V53.6857H274.074V57.8342Z" fill="white"/>
<path d="M268.446 64.0768H265.199V59.9283H268.446V64.0768Z" fill="white"/>
<path d="M274.074 64.0768H270.827V59.9283H274.074V64.0768Z" fill="white"/>
<path d="M268.446 70.3174H265.199V66.1699H268.446V70.3174Z" fill="white"/>
<path d="M274.074 70.3174H270.827V66.1699H274.074V70.3174Z" fill="white"/>
<path d="M268.446 76.7146H265.199V72.5661H268.446V76.7146Z" fill="white"/>
<path d="M274.074 76.7146H270.827V72.5661H274.074V76.7146Z" fill="white"/>
<path d="M268.446 83.1108H265.199V78.9623H268.446V83.1108Z" fill="white"/>
<path d="M274.074 83.1108H270.827V78.9623H274.074V83.1108Z" fill="white"/>
<path d="M268.446 89.5072H265.199V85.3587H268.446V89.5072Z" fill="white"/>
<path d="M274.074 89.5072H270.827V85.3587H274.074V89.5072Z" fill="white"/>
<path d="M268.446 95.9034H265.199V91.755H268.446V95.9034Z" fill="white"/>
<path d="M274.074 95.9034H270.827V91.755H274.074V95.9034Z" fill="white"/>
<path d="M268.446 102.368H265.199V98.2199H268.446V102.368Z" fill="white"/>
<path d="M274.074 102.368H270.827V98.2199H274.074V102.368Z" fill="white"/>
<path d="M268.446 108.832H265.199V104.684H268.446V108.832Z" fill="white"/>
<path d="M274.074 108.832H270.827V104.684H274.074V108.832Z" fill="white"/>
<path d="M268.446 115.296H265.199V111.149H268.446V115.296Z" fill="white"/>
<path d="M274.074 115.296H270.827V111.149H274.074V115.296Z" fill="white"/>
<path d="M268.446 121.761H265.199V117.613H268.446V121.761Z" fill="white"/>
<path d="M274.074 121.761H270.827V117.613H274.074V121.761Z" fill="white"/>
<path d="M393.302 146.155H122.307V14.1422H393.302V146.155ZM118.385 9.75105V150.547H397.226V9.75105H118.385Z" fill="#D4D6D3"/>
<path d="M259.772 146.155H255.838V14.1441H259.772V146.155Z" fill="#D4D6D3"/>
<path d="M293.81 218.307C293.81 218.307 269.668 214.941 275.311 185.923C275.311 185.923 302.285 191.952 293.81 218.307Z" fill="#FABB1E"/>
<path d="M293.809 218.307C293.809 218.307 274.449 215.608 274.456 194.204C274.457 191.707 274.721 188.955 275.311 185.923C275.311 185.923 295.458 190.426 295.457 208.662C295.457 211.526 294.96 214.729 293.809 218.307Z" fill="#FFD700"/>
<path d="M292.589 212.249C292.117 210.781 291.561 209.341 290.946 207.924C290.926 207.739 290.899 207.554 290.883 207.375C290.847 206.976 290.814 206.576 290.783 206.177C290.715 205.311 290.66 204.445 290.609 203.578C290.507 201.845 290.395 200.11 290.369 198.373C290.367 198.279 290.222 198.283 290.221 198.377C290.206 200.114 290.179 201.85 290.247 203.586C290.281 204.453 290.331 205.321 290.389 206.187C290.402 206.379 290.416 206.572 290.43 206.764C289.08 203.872 287.447 201.108 285.59 198.522C284.761 197.367 283.888 196.258 282.95 195.19C281.987 194.092 280.971 193.049 279.997 191.963L279.896 192.069C281.671 193.913 283.139 196.102 284.549 198.228C285.282 199.334 285.974 200.468 286.633 201.622L286.409 201.534C286.123 201.416 285.837 201.298 285.549 201.188C284.894 200.936 284.236 200.688 283.578 200.445C282.283 199.967 280.985 199.495 279.694 199.007L279.641 199.142C280.924 199.651 282.195 200.19 283.463 200.735C284.087 201.003 284.71 201.269 285.333 201.536C285.645 201.67 285.961 201.796 286.276 201.923C286.487 202.008 286.695 202.114 286.916 202.149C287.403 203.019 287.886 203.892 288.33 204.783C289.446 207.028 290.441 209.346 291.28 211.708C291.339 211.874 291.395 212.041 291.453 212.207C290.857 211.806 290.097 211.544 289.476 211.258C288.644 210.875 287.808 210.504 286.976 210.123C285.284 209.348 283.601 208.563 281.979 207.651L281.908 207.779C283.566 208.681 285.192 209.641 286.854 210.539C287.684 210.989 288.519 211.425 289.37 211.835C290.068 212.172 290.854 212.641 291.638 212.74C292.393 214.959 293.027 217.205 293.22 219.558C293.489 222.839 293.459 226.147 293.536 229.436L293.624 229.434C293.864 226.45 294 223.439 294.014 220.445C294.026 217.599 293.456 214.95 292.589 212.249Z" fill="#17282F"/>
<path d="M288.872 195.184C288.684 196.873 288.515 198.602 288.633 200.302L288.705 200.3C288.803 198.602 288.818 196.911 289.016 195.22C289.027 195.127 288.883 195.091 288.872 195.184Z" fill="#17282F"/>
<path d="M281.97 196.637C280.901 196.185 279.839 195.761 278.865 195.118L278.794 195.247C279.769 195.852 280.813 196.443 281.93 196.738L281.97 196.637Z" fill="#17282F"/>
<path d="M294.581 264.376C294.561 261.719 294.511 259.063 294.48 256.407C294.429 247.586 294.356 238.764 294.197 229.943C294.071 222.939 293.905 215.939 293.706 208.936L293.645 208.846C293.635 206.934 293.626 205.022 293.614 203.11L293.499 203.039L293.384 203.113C293.372 205.029 293.36 206.945 293.348 208.86L293.293 208.943C292.938 221.406 292.621 233.872 292.547 246.338C292.532 248.872 292.534 251.407 292.522 253.941C292.437 262.069 292.399 270.197 292.429 278.325C292.42 279.619 292.405 280.913 292.4 282.206C292.374 289.643 292.477 297.079 292.479 304.515C292.479 304.916 292.926 305.114 293.4 305.133C293.942 305.155 294.519 304.939 294.518 304.482C294.521 296.282 294.576 288.081 294.575 279.882C294.601 274.713 294.62 269.544 294.581 264.376Z" fill="#17282F"/>
<path d="M284.499 256.306C284.499 256.306 272.887 247.739 261.866 253.527C250.846 259.315 249.117 281.628 249.117 281.628C249.117 281.628 265.3 283.933 275.491 274.275C285.313 264.968 284.499 256.306 284.499 256.306Z" fill="#FFD700"/>
<path d="M287.663 256.834C285.562 255.955 283.222 255.738 280.937 255.96C280.474 255.857 279.983 255.856 279.514 255.822C278.968 255.783 278.422 255.742 277.877 255.7C276.749 255.612 275.619 255.545 274.491 255.461C272.2 255.291 269.902 255.151 267.617 254.923L267.601 255.067C269.863 255.355 272.116 255.675 274.385 255.904C275.552 256.021 276.72 256.141 277.89 256.224C278.165 256.243 278.449 256.274 278.74 256.307C278.392 256.383 278.047 256.466 277.709 256.561C275.888 257.075 274.133 257.81 272.447 258.69C271.532 258.854 270.623 259.109 269.725 259.319C268.289 259.655 266.858 260.025 265.431 260.397C262.611 261.133 259.82 261.96 257.022 262.771C256.931 262.797 256.974 262.933 257.066 262.911C259.861 262.229 262.672 261.603 265.473 260.939C266.835 260.617 268.198 260.299 269.557 259.965C269.909 259.878 270.266 259.799 270.624 259.72C267.498 261.636 264.685 264.095 262.371 266.864C260.06 269.628 258.22 272.653 256.635 275.872L256.759 275.951C258.637 272.677 260.997 269.594 263.7 266.88C263.65 267.034 263.599 267.187 263.549 267.341C263.332 268.022 263.119 268.703 262.903 269.384C262.473 270.745 262.039 272.105 261.63 273.473C261.602 273.565 261.741 273.595 261.773 273.509C262.262 272.189 262.727 270.862 263.195 269.535C263.425 268.884 263.655 268.233 263.884 267.582C264.003 267.244 264.118 266.906 264.233 266.567C264.268 266.462 264.308 266.36 264.344 266.256C265.649 265.001 267.02 263.822 268.462 262.762C270.367 261.362 272.448 260.18 274.627 259.243C274.586 259.444 274.55 259.644 274.508 259.836C274.395 260.363 274.276 260.889 274.167 261.417C273.94 262.512 273.727 263.609 273.512 264.706C273.074 266.944 272.804 269.209 272.383 271.448C272.365 271.54 272.504 271.576 272.526 271.484C273.046 269.233 273.717 267.019 274.221 264.764C274.472 263.635 274.729 262.508 274.964 261.377C275.073 260.849 275.179 260.319 275.286 259.79C275.346 259.496 275.415 259.202 275.449 258.906C275.661 258.823 275.867 258.725 276.08 258.647C279.126 257.523 282.493 256.708 285.741 257.329C288.848 257.923 291.511 259.998 292.73 262.905C292.836 263.157 293.234 263 293.176 262.743C292.545 259.965 290.215 257.902 287.663 256.834Z" fill="#17282F"/>
<path d="M269.887 266.363C269.559 267.827 269.233 269.292 268.907 270.758C268.598 272.156 268.214 273.602 268.096 275.032L268.191 275.042C268.665 273.665 268.895 272.163 269.176 270.736C269.463 269.291 269.748 267.845 270.031 266.397C270.048 266.305 269.909 266.27 269.887 266.363Z" fill="#17282F"/>
<path d="M258.657 270.087C257.178 270.833 255.745 271.682 254.201 272.294C254.103 272.333 254.164 272.474 254.26 272.426C255.748 271.688 257.287 271.034 258.692 270.143L258.657 270.087Z" fill="#17282F"/>
<path d="M287.109 240.574C287.109 240.574 272.917 241.476 266.316 232.157C259.714 222.838 261.196 209.532 261.196 209.532C261.196 209.532 276.103 211.335 282.023 218.027C287.943 224.718 287.109 240.574 287.109 240.574Z" fill="#FFD700"/>
<path d="M293.769 254.518C293.279 253.004 292.669 251.512 292.095 250.027C291.545 248.6 290.955 247.189 290.33 245.793C289.055 242.945 287.648 240.165 286.076 237.467C285.075 235.75 284.001 234.084 282.897 232.44C282.874 232.19 282.824 231.939 282.786 231.688C282.72 231.251 282.657 230.813 282.588 230.376C282.447 229.482 282.29 228.589 282.14 227.696C281.813 225.745 281.409 223.807 281.097 221.853C281.083 221.762 280.936 221.763 280.95 221.857C281.236 223.784 281.43 225.725 281.702 227.654C281.835 228.602 281.96 229.551 282.104 230.498C282.157 230.84 282.212 231.181 282.266 231.523C280.097 228.379 277.765 225.35 275.245 222.456C274.906 222.066 274.556 221.685 274.209 221.302C274.174 221.194 274.121 221.088 274.078 220.978C273.973 220.71 273.87 220.44 273.769 220.17C273.561 219.609 273.357 219.046 273.155 218.484C272.756 217.377 272.399 216.261 272.097 215.124C272.073 215.032 271.934 215.075 271.957 215.166C272.243 216.327 272.545 217.484 272.886 218.629C273.051 219.182 273.233 219.729 273.429 220.272C273.462 220.363 273.497 220.454 273.53 220.545C271.716 218.575 269.824 216.678 267.913 214.803L267.811 214.909C271.52 218.69 274.798 222.865 277.867 227.175C277.52 227.064 277.165 226.977 276.816 226.909C275.724 226.698 274.622 226.545 273.518 226.404C271.206 226.111 268.9 225.82 266.597 225.459C266.505 225.444 266.468 225.583 266.561 225.601C268.76 226.033 270.94 226.526 273.124 227.026C274.155 227.261 275.189 227.462 276.226 227.666C277.091 227.835 277.892 228.098 278.717 228.373C278.947 228.7 279.185 229.021 279.412 229.35C280.453 230.86 281.452 232.399 282.43 233.952C281.949 233.856 281.465 233.764 280.983 233.671C279.887 233.459 278.785 233.261 277.684 233.081C275.52 232.726 273.354 232.352 271.215 231.867C271.122 231.846 271.087 231.988 271.179 232.009C273.349 232.516 275.5 233.109 277.653 233.679C278.692 233.955 279.74 234.208 280.79 234.438C281.315 234.554 281.841 234.67 282.368 234.778C282.595 234.824 282.806 234.883 283.006 234.887C285.079 238.234 287.027 241.66 288.826 245.156C289.618 246.693 290.379 248.247 291.119 249.81C291.878 251.414 292.527 253.053 293.227 254.681C293.366 255.006 293.885 254.872 293.769 254.518Z" fill="#17282F"/>
<path d="M279.244 222.04C278.973 220.691 278.688 219.348 278.388 218.006C278.367 217.913 278.228 217.956 278.247 218.048C278.516 219.372 278.772 220.699 279.013 222.029C279.253 223.347 279.445 224.698 279.819 225.988L279.862 225.981C279.79 224.659 279.504 223.335 279.244 222.04Z" fill="#17282F"/>
<path d="M270.966 221.647C270.307 221.321 269.611 221.056 268.926 220.792C268.566 220.653 268.208 220.514 267.85 220.372C267.667 220.3 267.484 220.226 267.301 220.154C267.108 220.076 266.869 220.018 266.702 219.892C266.595 219.812 266.527 219.998 266.633 220.017C266.843 220.052 267.048 220.177 267.24 220.264C267.42 220.343 267.598 220.423 267.778 220.503C268.123 220.656 268.467 220.81 268.813 220.962C269.497 221.264 270.195 221.566 270.909 221.789L270.966 221.647Z" fill="#17282F"/>
<path d="M301.637 229.462C301.637 229.462 310.227 213.488 323.293 211.014C336.36 208.54 344.357 221.926 344.357 221.926C344.357 221.926 334.827 234.046 322.835 236.161C310.843 238.276 301.637 229.462 301.637 229.462Z" fill="#FABB1E"/>
<path d="M332.05 218.173C328.664 217.711 325.197 217.765 321.803 218.295C321.998 218.188 322.192 218.08 322.385 217.984C323.355 217.493 324.318 216.996 325.283 216.497C327.289 215.457 329.318 214.35 331.419 213.513C331.517 213.475 331.457 213.335 331.359 213.381C329.315 214.329 327.196 215.123 325.146 216.062C324.12 216.531 323.111 217.021 322.114 217.548C321.469 217.887 320.755 218.209 320.122 218.616C317.252 219.202 314.448 220.111 311.816 221.363C312.362 220.773 312.908 220.183 313.45 219.591C314.668 218.264 315.866 216.87 317.204 215.66L317.097 215.559C315.729 216.796 314.286 217.941 312.96 219.226C312.316 219.85 311.701 220.497 311.101 221.162C310.802 221.493 310.502 221.837 310.218 222.191C304.536 225.266 299.701 229.909 296.513 235.519C294.7 238.709 293.435 242.157 292.699 245.745C292.681 245.835 292.812 245.885 292.839 245.792C294.632 239.761 298.02 234.094 302.444 229.607C307.245 224.739 313.308 221.221 319.95 219.522C323.894 218.513 327.971 218.162 332.032 218.429C332.2 218.441 332.212 218.195 332.05 218.173Z" fill="#17282F"/>
<path d="M319.083 236.49C315.788 236.49 312.787 235.743 310.239 234.736C312.788 235.743 315.789 236.489 319.085 236.489C320.297 236.489 321.551 236.387 322.834 236.161C334.762 234.057 344.254 222.057 344.356 221.927C344.358 221.928 344.36 221.928 344.36 221.928C344.36 221.928 334.826 234.05 322.833 236.162C321.548 236.388 320.295 236.49 319.083 236.49ZM303.586 231.048C303.415 230.923 303.255 230.802 303.106 230.688L303.105 230.687C303.255 230.802 303.415 230.922 303.586 231.048Z" fill="#E0E1DE"/>
<path d="M319.085 236.489C315.789 236.489 312.788 235.743 310.239 234.736C307.374 233.603 305.081 232.143 303.586 231.048C303.415 230.922 303.255 230.802 303.106 230.687L302.446 229.608C302.446 229.608 308.631 224.417 320.333 221.422C323.839 220.524 327.399 220.21 330.668 220.21C338.205 220.21 344.189 221.881 344.356 221.927C344.254 222.057 334.762 234.057 322.835 236.161C321.551 236.387 320.297 236.489 319.085 236.489Z" fill="#F4AC12"/>
<path d="M324.461 212.478C323.469 213.08 322.482 213.679 321.559 214.384C320.65 215.078 319.804 215.832 319.038 216.681L319.151 216.787C320.018 216.037 320.89 215.286 321.79 214.576C322.674 213.879 323.574 213.187 324.539 212.602L324.461 212.478Z" fill="#17282F"/>
<path d="M331.632 215.182C331.147 215.383 330.653 215.556 330.169 215.756C329.684 215.957 329.199 216.157 328.715 216.357C328.611 216.401 328.66 216.569 328.765 216.527C329.252 216.33 329.738 216.134 330.224 215.938C330.711 215.741 331.187 215.518 331.674 215.322C331.762 215.287 331.719 215.145 331.632 215.182Z" fill="#17282F"/>
<path d="M299.923 249.567C299.923 249.567 302.218 265.413 314.185 270.957C326.152 276.499 340.743 270.957 340.743 270.957C340.743 270.957 335.005 236.672 299.923 249.567Z" fill="#FFD700"/>
<path d="M332.496 260.649C331.392 260.524 330.295 260.336 329.203 260.137C328.666 260.04 328.13 259.939 327.594 259.835C327.323 259.782 327.039 259.717 326.754 259.668C326.432 259.368 326.115 259.063 325.785 258.773C323.519 256.786 321.062 255.024 318.465 253.491C317.051 252.656 315.584 251.908 314.079 251.246L314.304 251.256C315.617 251.313 316.931 251.366 318.244 251.427C320.871 251.548 323.497 251.605 326.122 251.775C326.216 251.78 326.212 251.634 326.118 251.629C323.483 251.45 320.862 251.162 318.231 250.936C316.955 250.827 315.679 250.712 314.403 250.598C313.747 250.539 313.09 250.483 312.432 250.427C312.263 250.412 312.096 250.391 311.928 250.373C311.245 250.12 310.557 249.88 309.861 249.665C306.589 248.654 303.079 248.253 299.724 249.108C296.714 249.876 293.709 251.84 292.93 255.001C292.902 255.11 293.073 255.186 293.12 255.075C294.243 252.434 297.187 251.105 299.844 250.556C301.631 250.186 303.46 250.207 305.264 250.45C305.338 251.262 305.645 252.097 305.868 252.846C306.2 253.961 306.526 255.077 306.865 256.19C307.544 258.416 308.291 260.621 308.952 262.85C308.98 262.941 309.117 262.9 309.093 262.808C308.538 260.584 308.069 258.339 307.53 256.112C307.266 255.017 306.989 253.926 306.717 252.833C306.543 252.133 306.396 251.307 306.114 250.581C307.167 250.764 308.207 251.013 309.22 251.31C311.059 251.847 312.871 252.516 314.644 253.288C314.819 254.418 315.072 255.537 315.333 256.651C315.66 258.05 316.025 259.436 316.47 260.804L316.604 260.763L316.55 260.504L316.548 260.5C316.279 259.204 315.993 257.913 315.718 256.618C315.497 255.575 315.294 254.526 315.066 253.484C316.552 254.149 318.014 254.876 319.427 255.684C319.456 256.006 319.536 256.337 319.583 256.632C319.669 257.175 319.768 257.717 319.868 258.258C320.093 259.48 320.338 260.698 320.632 261.907C321.198 264.233 321.834 266.56 322.69 268.798L322.692 268.89L322.76 268.969L322.881 268.895C322.327 266.546 321.694 264.218 321.176 261.86C320.918 260.684 320.657 259.507 320.42 258.327C320.301 257.736 320.192 257.144 320.08 256.553C320.049 256.386 320.024 256.204 319.997 256.022C321.613 256.974 323.176 258.004 324.658 259.116C327.21 261.036 329.657 263.227 331.791 265.601C331.876 265.695 332.045 265.562 331.966 265.459C331.054 264.265 330.147 263.097 329.114 261.994C328.512 261.352 327.887 260.731 327.25 260.124L327.448 260.158C328.009 260.252 328.571 260.335 329.134 260.41C330.241 260.557 331.352 260.665 332.461 260.791C332.554 260.802 332.591 260.659 332.496 260.649Z" fill="#17282F"/>
<path d="M324.086 266.021C324.068 265.884 324.044 265.747 324.018 265.61C323.983 265.434 323.898 265.267 323.873 265.092L323.87 265.086C323.622 264.027 323.414 262.961 323.223 261.889L323.093 261.909C323.144 263.325 323.496 264.73 324.004 266.046L324.088 266.033L324.086 266.021Z" fill="#17282F"/>
<path d="M314.07 265.767L313.999 265.7C313.663 264.298 313.339 262.893 313.049 261.48C312.897 260.737 312.74 259.995 312.598 259.251C312.521 258.85 312.446 258.448 312.374 258.046C312.312 257.7 312.281 257.33 312.117 257.017L311.982 257.037C311.883 257.703 312.158 258.509 312.282 259.164C312.429 259.937 312.58 260.71 312.751 261.478C313.098 263.042 313.492 264.599 313.935 266.138C313.96 266.224 314.1 266.205 314.094 266.112C314.086 265.997 314.077 265.882 314.07 265.767Z" fill="#17282F"/>
<path d="M331.405 256.085C329.22 255.786 327.036 255.472 324.845 255.207C324.753 255.196 324.715 255.335 324.809 255.35C326.992 255.67 329.183 255.941 331.37 256.227C331.463 256.239 331.499 256.097 331.405 256.085Z" fill="#17282F"/>
<path d="M293.791 212.401C293.791 212.401 286.469 180.411 320.988 167.467C320.988 167.467 330.552 209.574 293.791 212.401Z" fill="#FFD700"/>
<path d="M301.242 194.259C301.372 194.176 301.498 194.097 301.613 194.034C302.266 193.677 302.914 193.311 303.564 192.949L307.568 190.719C310.202 189.252 312.804 187.726 315.456 186.289L315.379 186.165C312.721 187.603 310.018 188.95 307.344 190.358L303.386 192.44C302.848 192.723 302.308 193.006 301.771 193.29C302.922 191.116 304.152 188.984 305.504 186.931C307.308 184.191 309.284 181.581 311.343 179.027C311.437 178.91 311.283 178.759 311.172 178.864C308.127 181.765 305.491 185.084 303.191 188.608C303.194 188.496 303.196 188.382 303.202 188.275C303.241 187.479 303.261 186.684 303.273 185.887C303.296 184.326 303.22 182.762 303.268 181.202C303.271 181.107 303.124 181.112 303.12 181.206C303.056 182.742 302.871 184.275 302.782 185.81C302.739 186.577 302.706 187.343 302.683 188.111C302.671 188.526 302.631 188.998 302.646 189.453C301.935 190.578 301.253 191.722 300.607 192.88C299.457 194.944 298.428 197.105 297.522 199.322C297.488 198.525 297.439 197.729 297.392 196.933C297.289 195.181 297.074 193.438 297 191.685C296.996 191.59 296.851 191.594 296.853 191.689C296.889 193.441 296.807 195.192 296.862 196.946C296.889 197.822 296.917 198.697 296.974 199.571C296.995 199.892 297.012 200.221 297.034 200.548C295.934 203.419 295.051 206.373 294.427 209.339C293.754 212.543 293.48 215.753 293.142 219L293.178 218.999C293.48 216.104 294.218 213.182 295.011 210.385C295.438 208.874 295.887 207.372 296.374 205.882C297.81 205.208 299.185 204.368 300.572 203.603C302.012 202.808 303.461 202.032 304.905 201.243C307.783 199.671 310.659 198.07 313.631 196.68L313.553 196.556C310.542 197.912 307.51 199.204 304.556 200.681C303.084 201.418 301.638 202.204 300.203 203.008C299.005 203.68 297.773 204.354 296.627 205.127C296.963 204.131 297.312 203.14 297.693 202.16C298.742 199.472 299.925 196.831 301.242 194.259Z" fill="#17282F"/>
<path d="M298.333 186.945C298.326 186.851 298.179 186.854 298.186 186.949C298.309 188.773 298.371 190.597 298.565 192.417C298.577 192.519 298.731 192.518 298.728 192.413C298.663 190.585 298.467 188.769 298.333 186.945Z" fill="#17282F"/>
<path d="M314.882 193.054C312.721 193.92 310.542 194.743 308.393 195.639L308.423 195.737C310.603 194.924 312.756 194.037 314.925 193.194C315.014 193.16 314.971 193.019 314.882 193.054Z" fill="#17282F"/>
<path d="M318.163 178.3C316.05 179.275 314.001 180.354 312.024 181.579C311.923 181.641 312.019 181.795 312.122 181.735C314.124 180.569 316.162 179.451 318.241 178.425L318.163 178.3Z" fill="#17282F"/>
<path d="M317.643 333.825H267.86V281.578H317.643V333.825Z" fill="#33535F"/>
<path d="M266.98 389.558H264.434V300.065H266.98V389.558Z" fill="#17282F"/>
<path d="M320.8 389.558H318.252V300.065H320.8V389.558Z" fill="#17282F"/>
<path d="M295.245 389.558H292.698V300.065H295.245V389.558Z" fill="#17282F"/>
<path d="M319.527 337.711H265.707V330.476H319.527V337.711Z" fill="#17282F"/>
<path d="M9.26172 389.558L87.7287 389.323L166.195 389.238L323.129 389.076L480.064 389.237L558.53 389.321L636.998 389.558L558.53 389.795L480.064 389.879L323.129 390.041L166.195 389.878L87.7287 389.793L9.26172 389.558Z" fill="#17282F"/>
<path d="M473.906 19.9941H621.521V389.325H473.906V19.9941Z" fill="white"/>
<path d="M635.587 4.78555V389.325H621.521V19.7118H473.906V389.325H459.851V4.78555H635.587Z" fill="#273E47"/>
<path d="M505.742 402L622.752 389.325V19.7119L505.279 3.20203L505.742 402Z" fill="#33535F"/>
<path d="M499.058 2.64804L505.743 3.58484V402L499.058 400.728V2.64804Z" fill="#273E47"/>
<path d="M560.395 347.095L524.833 349.702V28.6488L560.395 32.8649V347.095Z" fill="#D4D6D3"/>
<path d="M608.118 343.237L572.557 346.253V34.3073L608.118 38.5225V343.237Z" fill="#D4D6D3"/>
<path d="M560.397 32.8689V38.0306L524.83 65.0833V48.1867L547.184 31.3027L560.397 32.8689Z" fill="#E7E8E5"/>
<path d="M524.83 250.78L560.397 217.33V233.644L524.83 267.676V250.78Z" fill="#E7E8E5"/>
<path d="M608.116 175.824V191.357L572.559 222.494V206.39L608.116 175.824Z" fill="#E7E8E5"/>
<path d="M608.116 308.697V324.231L587.381 345.035L572.559 346.25V344.241L608.116 308.697Z" fill="#E7E8E5"/>
<path d="M524.83 109.293L560.397 80.7277V88.8855L524.83 117.753V109.293Z" fill="#E7E8E5"/>
<path d="M608.116 45.7609V53.5281L572.559 79.5125V71.4436L608.116 45.7609Z" fill="#E7E8E5"/>
<path d="M524.83 341.931L560.397 305.34V313.496L525.506 349.648L524.83 349.699V341.931Z" fill="#E7E8E5"/>
<path d="M608.116 259.621V267.387L572.559 301.373V293.326L608.116 259.621Z" fill="#E7E8E5"/>
<path d="M524.83 96.3839L560.397 68.2523V70.7997L524.83 99.0106V96.3839Z" fill="#E7E8E5"/>
<path d="M605.344 38.1978L572.559 61.6366V59.1307L602.344 37.842L605.344 38.1978Z" fill="#E7E8E5"/>
<path d="M536.892 348.856L560.398 324.453V327L539.524 348.658L536.892 348.856Z" fill="#E7E8E5"/>
<path d="M608.116 277.819V280.245L572.559 314.712V312.206L608.116 277.819Z" fill="#E7E8E5"/>
<path d="M524.83 155.474L560.397 125.318V127.865L524.83 158.113V155.474Z" fill="#E7E8E5"/>
<path d="M608.116 88.2068V90.6421L572.559 118.006V115.49L608.116 88.2068Z" fill="#E7E8E5"/>
<path d="M524.83 229.66L560.397 196.938V199.474L524.83 232.287V229.66Z" fill="#E7E8E5"/>
<path d="M608.116 156.408V158.823L572.559 188.752V186.246L608.116 156.408Z" fill="#E7E8E5"/>
<path d="M523.594 251.679L512.967 253.681L513.011 210.269L523.643 208.874L523.594 251.679Z" fill="#BEBFBD"/>
<path d="M534.283 215.765L518.305 218.171V213.25L534.283 210.918V215.765Z" fill="#BEBFBD"/>
<path d="M531.422 223.676V211.333L534.283 210.918V223.227L531.422 223.676Z" fill="#BEBFBD"/>
<path d="M128.886 284.595C124.588 287.131 120.246 289.584 115.897 292.023C111.548 294.465 107.162 296.839 102.797 299.25C98.3983 301.599 94.0168 303.981 89.6009 306.3L82.9691 309.764C80.7431 310.89 78.5315 312.042 76.293 313.146C78.437 311.87 80.6084 310.643 82.765 309.392L89.2812 305.717C93.6308 303.276 98.0148 300.9 102.381 298.492C106.782 296.143 111.162 293.758 115.578 291.442C119.994 289.124 124.417 286.818 128.886 284.595Z" fill="#D4D6D3"/>
<path d="M80.0078 284.595C84.164 286.568 88.2761 288.623 92.3815 290.692C96.488 292.758 100.558 294.894 104.648 296.991C108.706 299.151 112.78 301.278 116.821 303.469L122.874 306.77C124.877 307.899 126.895 309.001 128.885 310.152C126.803 309.175 124.747 308.147 122.677 307.146L116.51 304.058C112.405 301.989 108.334 299.856 104.245 297.756C100.188 295.594 96.1121 293.47 92.0724 291.278C88.0316 289.087 83.9975 286.883 80.0078 284.595Z" fill="#D4D6D3"/>
<path d="M178.526 284.595C174.228 287.131 169.886 289.584 165.536 292.023C161.188 294.465 156.802 296.839 152.437 299.25C148.038 301.599 143.657 303.981 139.241 306.3L132.609 309.764C130.383 310.89 128.172 312.042 125.933 313.146C128.077 311.87 130.249 310.643 132.405 309.392L138.921 305.717C143.271 303.276 147.655 300.9 152.021 298.492C156.422 296.143 160.801 293.758 165.218 291.442C169.634 289.124 174.056 286.818 178.526 284.595Z" fill="#D4D6D3"/>
<path d="M129.647 284.595C133.804 286.568 137.916 288.623 142.021 290.692C146.128 292.758 150.198 294.894 154.289 296.991C158.345 299.151 162.42 301.278 166.462 303.469L172.514 306.77C174.518 307.899 176.534 309.001 178.526 310.152C176.443 309.175 174.386 308.147 172.316 307.146L166.151 304.058C162.046 301.989 157.973 299.856 153.885 297.756C149.829 295.594 145.753 293.47 141.713 291.278C137.671 289.087 133.637 286.883 129.647 284.595Z" fill="#D4D6D3"/>
<path d="M169.449 277.755L172.08 293.46L189.897 389.265H192.769L179.812 293.46L177.898 277.755H169.449Z" fill="#D4D6D3"/>
<path d="M177.898 277.755H169.449L172.08 293.46H179.812L177.898 277.755Z" fill="#BEBFBD"/>
<path d="M113.499 389.265H116.371L134.188 293.46L136.819 277.755H128.37L126.456 293.46L113.499 389.265Z" fill="#D4D6D3"/>
<path d="M128.37 277.755L126.455 293.46H134.188L136.818 277.755H128.37Z" fill="#BEBFBD"/>
<path d="M60.0576 389.265H62.9295L80.7467 293.46L83.3766 277.755H74.9285L73.014 293.46L60.0576 389.265Z" fill="#D4D6D3"/>
<path d="M73.0137 293.46H80.7464L83.3764 277.755H74.9282L73.0137 293.46Z" fill="#BEBFBD"/>
<path d="M64.6123 285.135H195.169V271.437H146.295L129.869 166.155H69.5897L64.6123 285.135Z" fill="#D4D6D3"/>
<path d="M64.6123 285.135H71.7288L76.3675 166.155H69.5897L64.6123 285.135Z" fill="#BEBFBD"/>
<path d="M49.4917 333.601H26.1699V329.519H49.4917V333.601Z" fill="#33535F"/>
<path d="M62.1401 389.265H59.6218L39.0798 293.781L37.9086 288.337L34.2193 271.197L32.8455 264.805L27.6771 240.818L25.8721 232.42H34.8443L36.3061 240.818L37.2657 246.333L37.9086 250.006L41.5891 271.197L42.7778 278.017L62.1401 389.265Z" fill="#33535F"/>
<path d="M34.8443 232.42L36.3061 240.818H27.6771L25.8721 232.42H34.8443Z" fill="#17282F"/>
<path d="M42.778 278.017L39.08 293.781L37.9088 288.337L34.2195 271.196L32.8457 264.805L37.2659 246.333L37.9088 250.006L41.5893 271.196L42.778 278.017Z" fill="#17282F"/>
<path d="M49.9362 232.42L48.1308 240.818L41.5889 271.197L37.9084 288.337L16.1861 389.265H13.6768L34.2191 271.197L37.9084 250.006L39.5021 240.818L40.9635 232.42H49.9362Z" fill="#33535F"/>
<path d="M49.936 232.42L48.1306 240.818H39.502L40.9633 232.42H49.936Z" fill="#17282F"/>
<path d="M278.162 333.601H254.841V329.519H278.162V333.601Z" fill="#33535F"/>
<path d="M290.811 389.265H288.293L267.751 293.781L266.58 288.337L262.89 271.197L261.516 264.805L256.348 240.818L254.543 232.42H263.516L264.977 240.818L265.937 246.333L266.58 250.006L270.26 271.197L271.448 278.017L290.811 389.265Z" fill="#33535F"/>
<path d="M263.516 232.42L264.977 240.818H256.348L254.543 232.42H263.516Z" fill="#17282F"/>
<path d="M271.449 278.017L267.751 293.781L266.58 288.337L262.891 271.196L261.517 264.805L265.937 246.333L266.58 250.006L270.26 271.196L271.449 278.017Z" fill="#17282F"/>
<path d="M278.607 232.42L276.802 240.818L270.26 271.197L266.58 288.337L244.858 389.265H242.348L262.89 271.197L266.58 250.006L268.173 240.818L269.635 232.42H278.607Z" fill="#33535F"/>
<path d="M278.607 232.42L276.802 240.818H268.173L269.634 232.42H278.607Z" fill="#17282F"/>
<path d="M296.085 232.416H8.40234V226.279H296.085V232.416Z" fill="#33535F"/>
<path d="M304.488 226.279H0V214.552H304.488V226.279Z" fill="#273E47"/>
<path d="M128.959 211.208V214.552H203.837V211.208H128.959Z" fill="#33535F"/>
<path d="M166.15 211.208V214.552H203.837V211.208H166.15Z" fill="#273E47"/>
<path d="M170.205 214.55H243.18L252.72 165.201H179.747L170.205 214.55Z" fill="#33535F"/>
<path d="M207.021 189.875C206.807 192.318 208.621 194.298 211.074 194.298C213.528 194.298 215.691 192.318 215.904 189.875C216.119 187.433 214.304 185.453 211.852 185.453C209.398 185.453 207.236 187.433 207.021 189.875Z" fill="white"/>
<path d="M30.6504 214.254H72.4758V174.234H30.6504V214.254Z" fill="#E7E8E5"/>
<path d="M14.7559 214.254H30.6508V174.234H14.7559V214.254Z" fill="#BEBFBD"/>
<path d="M72.4758 194.244H30.6504L63.3149 195.274L72.4758 194.244Z" fill="#BEBFBD"/>
<path d="M30.6504 209.419H72.4758L39.8112 210.448L30.6504 209.419Z" fill="#BEBFBD"/>
<path d="M72.4757 183.058H45.9824L69.5336 183.899L72.4757 183.058Z" fill="#BEBFBD"/>
<path d="M30.6504 203.527H57.1436L33.5929 204.368L30.6504 203.527Z" fill="#BEBFBD"/>
<path d="M62.4432 178.604H32.5615L37.5419 179.108L62.4432 178.604Z" fill="#BEBFBD"/>
<path d="M68.4107 198.535H38.5293L43.5096 199.038L68.4107 198.535Z" fill="#BEBFBD"/>
<path d="M50.0347 186.868H30.6507L27.1875 188.213L50.0347 186.868Z" fill="#E7E8E5"/>
<path d="M77.817 186.868H58.433L54.9697 188.213L77.817 186.868Z" fill="#D4D6D3"/>
<path d="M52.9434 204.855H72.3273L75.7905 206.199L52.9434 204.855Z" fill="#D4D6D3"/>
<path d="M30.6507 200.288H15.0853L11.6221 201.632L30.6507 200.288Z" fill="#BEBFBD"/>
<path d="M25.2182 194.244H13.1475L14.7561 193.144L25.2182 194.244Z" fill="#BEBFBD"/>
<path d="M393.931 329.486L391.061 369.133C391.021 376.893 391.126 383.695 391.509 387.209L391.516 387.266C391.66 388.593 391.842 389.439 392.079 389.666L392.125 389.715C394.436 391.291 456.702 393.414 458.898 392.76C461.103 392.116 459.396 385.821 457.045 383.819C454.676 381.816 431.211 370.388 431.211 370.388L433.694 330.786L393.931 329.486Z" fill="#BE5253"/>
<path d="M391.06 360.803L391.061 369.133C391.021 376.893 391.126 383.695 391.509 387.209L391.516 387.266C391.736 388.577 391.937 389.443 392.079 389.666L392.125 389.715C394.436 391.291 456.702 393.414 458.898 392.76C461.103 392.116 459.396 385.821 457.045 383.819C454.676 381.816 431.211 370.388 431.211 370.388L431.325 361.934L391.06 360.803Z" fill="white"/>
<path d="M458.899 392.761C456.699 393.417 394.439 391.295 392.122 389.714C391.231 389.128 391.013 380.077 391.065 369.133C391.066 369.019 391.068 368.905 391.069 368.791L431.252 369.713L431.213 370.391C431.213 370.391 454.68 381.816 457.045 383.822C459.391 385.821 461.099 392.115 458.899 392.761Z" fill="#999B9B"/>
<path d="M458.277 390.333C447.79 389.719 405.438 388.227 395.024 388.413L395.022 388.479C405.403 389.314 447.767 390.464 458.272 390.505C458.493 390.505 458.498 390.346 458.277 390.333Z" fill="#17282F"/>
<path d="M434.585 370.627C430.481 369.719 425.408 370.177 422.152 372.999C422.025 373.109 422.184 373.285 422.319 373.249C426.437 372.109 430.27 371.418 434.55 371.145C434.852 371.127 434.878 370.692 434.585 370.627Z" fill="#17282F"/>
<path d="M437.504 372.517C433.4 371.609 428.326 372.067 425.071 374.89C424.945 374.999 425.102 375.177 425.238 375.139C429.357 373.999 433.189 373.308 437.469 373.036C437.771 373.017 437.797 372.582 437.504 372.517Z" fill="#17282F"/>
<path d="M440.424 374.408C436.32 373.499 431.247 373.958 427.991 376.78C427.864 376.89 428.022 377.067 428.158 377.03C432.276 375.89 436.109 375.198 440.389 374.926C440.691 374.908 440.717 374.473 440.424 374.408Z" fill="#17282F"/>
<path d="M388.663 370.842L432.248 369.976C432.248 369.976 437.563 291.886 436.572 265.85C435.497 237.572 423.297 153.426 423.297 153.426H386.487C386.487 153.426 395.896 237.899 396.096 266.191C396.28 292.418 388.663 370.842 388.663 370.842Z" fill="#273E47"/>
<path d="M416.065 153.427L393.954 229.596C391.336 193.55 386.487 153.427 386.487 153.427H416.065Z" fill="#17282F"/>
<path d="M393.475 157.574L395.813 182.691L397.977 207.825C399.364 224.585 400.679 241.349 401.68 258.147C401.926 262.345 402.075 266.563 402.015 270.783C401.925 274.994 401.755 279.2 401.541 283.401C401.107 291.803 400.563 300.196 399.914 308.58C399.275 316.966 398.595 325.348 397.87 333.726L395.518 358.843L397.402 333.688C398.031 325.304 398.629 316.918 399.178 308.529C399.71 300.139 400.281 291.752 400.669 283.359C400.869 279.162 401.023 274.964 401.1 270.769C401.145 266.581 400.98 262.394 400.725 258.198C399.804 241.418 398.474 224.651 397.245 207.882L393.475 157.574Z" fill="#17282F"/>
<path d="M430.427 362.737C423.621 362.678 425.576 362.6 418.77 362.616C415.44 362.625 393.557 362.699 390.452 363.249L390.454 363.387C393.572 363.863 415.45 363.409 418.779 363.336C425.583 363.189 423.628 363.158 430.429 362.934C430.557 362.93 430.554 362.738 430.427 362.737Z" fill="#17282F"/>
<path d="M323.083 308.234L302.046 342.284C298.631 349.259 295.761 355.435 294.577 358.767L294.558 358.821C294.111 360.078 293.906 360.92 294.021 361.227L294.04 361.29C295.436 363.708 350.619 392.505 352.883 392.865C355.15 393.236 356.353 386.827 355.108 384.008C353.844 381.18 337.678 360.751 337.678 360.751L358.347 326.575L323.083 308.234Z" fill="#BE5253"/>
<path d="M294.025 361.231L294.035 361.291C295.435 363.709 350.616 392.506 352.884 392.867C355.151 393.238 356.351 386.827 355.111 384.007C353.841 381.178 337.678 360.75 337.678 360.75L341.366 354.65C332.347 349.863 315.952 341.455 305.774 336.248C303.557 339.83 302.046 342.278 302.046 342.287C298.63 349.261 295.758 355.432 294.579 358.763L294.559 358.823C294.105 360.077 293.904 360.92 294.025 361.231Z" fill="white"/>
<path d="M352.883 392.866C350.615 392.507 295.437 363.713 294.038 361.288C293.49 360.375 297.235 352.125 302.048 342.287C302.1 342.184 302.15 342.081 302.201 341.98L338.009 360.16L337.678 360.755C337.678 360.755 353.847 381.182 355.105 384.011C356.349 386.824 355.147 393.234 352.883 392.866Z" fill="#999B9B"/>
<path d="M353.38 390.41C344.199 385.329 306.684 365.697 297.221 361.369L297.189 361.428C306.18 366.662 343.852 385.99 353.3 390.562C353.499 390.659 353.573 390.518 353.38 390.41Z" fill="#17282F"/>
<path d="M340.613 362.422C337.311 359.833 332.539 358.056 328.376 359.192C328.215 359.237 328.28 359.464 328.419 359.489C332.626 360.24 336.381 361.272 340.356 362.875C340.636 362.988 340.85 362.608 340.613 362.422Z" fill="#17282F"/>
<path d="M342.42 365.387C339.118 362.796 334.348 361.02 330.184 362.157C330.022 362.2 330.088 362.429 330.226 362.453C334.434 363.204 338.189 364.236 342.164 365.839C342.443 365.952 342.657 365.573 342.42 365.387Z" fill="#17282F"/>
<path d="M344.227 368.351C340.925 365.76 336.154 363.983 331.99 365.121C331.829 365.164 331.894 365.393 332.033 365.417C336.24 366.168 339.996 367.201 343.97 368.803C344.251 368.917 344.464 368.536 344.227 368.351Z" fill="#17282F"/>
<path d="M419.531 153.392L419.521 153.429C419.361 154.183 416.787 166.073 414.119 176.287C412.179 183.749 410.182 190.306 409.038 190.985C407.74 191.748 401.419 194.536 399.301 195.413C399.301 195.413 385.085 266.071 377.58 287.982C370.655 308.2 341.998 362.242 341.998 362.242L300.423 341.327C300.423 341.327 332.891 286.481 336.306 276.638C341.597 261.382 361.426 186.895 361.426 186.895C361.426 186.895 361.275 163.574 369.162 153.392H419.531Z" fill="#273E47"/>
<path d="M341.387 354.171C335.446 350.867 337.197 351.732 331.22 348.493C328.295 346.909 309.063 336.512 306.075 335.511L306.01 335.633C308.515 337.541 327.925 347.601 330.881 349.129C336.919 352.252 335.219 351.29 341.294 354.346C341.407 354.403 341.498 354.233 341.387 354.171Z" fill="#17282F"/>
<path d="M372.093 180.407C373.231 180.116 374.449 180.025 375.61 179.841C376.548 179.693 377.482 179.529 378.41 179.325C380.156 178.942 381.922 178.362 383.35 177.255C384.958 176.008 385.777 174.117 386.554 172.299C387.016 171.22 387.492 170.148 387.975 169.078C388.209 168.558 388.445 168.041 388.687 167.526C388.969 166.923 389.357 166.294 389.564 165.664C389.595 165.572 389.743 165.62 389.705 165.705C389.523 166.126 389.445 166.606 389.31 167.046C389.152 167.567 389.003 168.09 388.842 168.609C388.553 169.535 388.271 170.465 387.964 171.385C387.413 173.04 386.922 174.773 385.984 176.261C384.268 178.981 381.199 180.078 378.13 180.464C377.251 180.575 376.364 180.637 375.479 180.687C374.384 180.749 373.218 180.846 372.127 180.712C371.961 180.692 371.913 180.454 372.093 180.407Z" fill="#17282F"/>
<path d="M412.401 189.316C407.889 190.862 403.535 193.058 399.37 195.359C399.207 195.449 399.315 195.701 399.492 195.626C403.882 193.749 408.358 191.954 412.638 189.838C412.974 189.672 412.747 189.198 412.401 189.316Z" fill="#17282F"/>
<path d="M413.723 159.381C413.711 159.23 413.445 159.196 413.446 159.359C413.481 164.547 413.149 169.113 412.709 173.962C412.506 176.213 410.687 188.655 406.767 187.747C406.109 187.595 405.774 186.953 405.672 185.967C405.548 184.783 405.996 183.33 406.192 182.151C406.628 179.547 406.977 176.935 407.202 174.303C407.621 169.392 407.642 164.481 407.043 159.586C407.022 159.424 406.789 159.437 406.789 159.599C406.795 166.398 406.616 173.184 405.596 179.917C405.105 183.153 403.468 188.026 406.867 188.524C410.33 189.03 412.569 180.869 412.992 178.637C414.17 172.408 414.217 165.683 413.723 159.381Z" fill="#17282F"/>
<path d="M406.87 188.083C406.516 188.918 406.23 189.787 405.989 190.661C405.8 191.34 405.544 192.074 405.622 192.781C405.637 192.919 405.82 192.932 405.894 192.839C406.353 192.258 406.547 191.465 406.804 190.776C407.102 189.979 407.418 189.187 407.694 188.381C407.876 187.847 407.089 187.567 406.87 188.083Z" fill="#17282F"/>
<path d="M311.646 334.459C317.564 323.366 323.665 312.374 329.788 301.392C332.806 295.979 335.956 290.626 338.838 285.139C341.685 279.719 343.615 274.023 345.416 268.193C349.077 256.345 352.546 244.438 355.818 232.478C359.09 220.517 362.148 208.499 365.038 196.443C365.761 193.427 366.552 190.413 367.136 187.366C367.741 184.202 367.559 181.245 367.121 178.075C366.72 175.177 366.607 172.324 367.054 169.423C367.495 166.554 368.215 163.735 369.085 160.968C369.545 159.511 370.042 158.066 370.545 156.623C370.6 156.462 370.851 156.535 370.8 156.701C369.009 162.54 367.175 168.445 367.561 174.629C367.745 177.604 368.536 180.521 368.484 183.514C368.434 186.49 367.647 189.41 366.975 192.293C364.151 204.426 361.101 216.505 357.867 228.537C354.634 240.568 351.204 252.546 347.576 264.465C345.811 270.26 344.162 276.148 341.658 281.68C339.15 287.223 335.973 292.459 332.985 297.752C326.809 308.691 320.581 319.602 314.213 330.432C313.407 331.805 312.592 333.173 311.78 334.542C311.728 334.629 311.599 334.548 311.646 334.459Z" fill="#17282F"/>
<path d="M407.397 99.8557C426.853 96.9476 451.39 89.4338 454.34 84.5776C457.593 79.2235 463.606 62.6866 466.32 45.4662C466.811 42.3502 441.884 41.5536 441.306 43.6989C439.151 51.7 433.06 71.7029 432.154 72.3177C430.964 73.1269 414.664 82.0765 403.168 88.4244C389.295 96.0853 396.831 101.434 407.397 99.8557Z" fill="#BE5253"/>
<path d="M466.013 47.6394C466.524 46.1767 471.328 34.4563 471.06 27.6695C470.918 24.0749 469.408 14.2369 467.201 14.0493C465.187 13.8782 464.935 16.6761 464.935 16.6761C464.935 16.6761 464.197 12.2995 461.394 12.0945C458.591 11.8886 458.411 16.6307 458.411 16.6307C458.411 16.6307 457.324 12.1912 454.513 12.1854C451.703 12.1796 452.323 16.9768 452.323 16.9768C452.323 16.9768 451.52 12.8718 449.203 13.8386C446.414 14.9997 448.754 22.4004 448.203 26.3449C448.079 27.2411 444.373 44.3224 444.373 44.3224L466.013 47.6394Z" fill="#BE5253"/>
<path d="M452.191 17.0725C453.899 22.5194 453.7 25.1964 452.248 30.624C452.22 30.7303 452.371 30.7961 452.411 30.6878C454.32 25.5019 455.056 22.18 452.453 16.9768C452.325 16.7216 452.111 16.8134 452.191 17.0725Z" fill="#17282F"/>
<path d="M458.265 16.709C459.542 22.5204 459.352 25.4265 458.25 31.2224L458.396 31.2582C459.954 25.6624 460.612 22.3309 458.569 16.6906C458.477 16.4364 458.206 16.4431 458.265 16.709Z" fill="#17282F"/>
<path d="M464.872 16.9536C465.701 22.6693 465.63 25.8645 463.835 31.3539C463.793 31.4835 463.979 31.5579 464.034 31.4323C466.411 26.0105 466.53 22.0244 465.05 16.9478C464.949 16.6008 464.821 16.595 464.872 16.9536Z" fill="#17282F"/>
<path d="M440.435 47.8666C440.435 47.8666 438.347 39.558 438.369 36.3415C438.392 33.126 442.904 21.1687 445.552 21.9924C448.973 23.0569 447.733 30.4692 446.65 34.0212C446.65 34.0212 454.563 36.4749 454.83 41.9866C455.096 47.4982 440.435 47.8666 440.435 47.8666Z" fill="#BE5253"/>
<path d="M446.396 22.592C448.812 25.8017 447.088 30.3727 446.295 33.8966C446.235 34.1644 446.43 34.3075 446.645 34.3124C449.894 35.5615 454.11 38.2646 454.982 41.8195C455.008 41.9229 455.16 41.9007 455.148 41.7934C454.732 37.8547 450.807 34.8625 447.162 33.7216C448.031 30.1204 449.559 25.4605 446.426 22.5669L446.396 22.592Z" fill="#17282F"/>
<path d="M438.595 50.361L465.451 56.9071C465.451 56.9071 457.383 84.3938 453.253 87.3793C449.124 90.3647 419.797 100.546 402.9 100.654C397.972 100.686 387.804 96.904 402.34 88.0521C416.877 79.2002 430.973 71.5104 431.527 70.8907C432.082 70.271 438.595 50.361 438.595 50.361Z" fill="#FFD700"/>
<path d="M437.827 56.8133C439.706 57.5316 441.724 57.9792 443.666 58.5032C445.69 59.0494 447.731 59.5319 449.77 60.024C451.806 60.5151 460.023 62.2157 462.075 62.6391C462.167 62.6585 462.197 62.5221 462.107 62.498C460.083 61.9469 452.056 59.7658 450.055 59.2931C448.052 58.8193 446.053 58.3301 444.039 57.9105C442.001 57.4861 439.929 56.9496 437.857 56.733L437.827 56.8133Z" fill="#17282F"/>
<path d="M409.096 100.257C409.095 100.255 409.095 100.254 409.094 100.252C411.664 99.961 414.38 99.525 417.151 98.9865C414.379 99.5279 411.664 99.9658 409.096 100.257Z" fill="#E0E1DE"/>
<path d="M409.093 100.252C408.723 99.1606 408.354 98.0981 407.986 97.0655C407.738 95.7352 407.524 94.607 407.356 93.7437L417.151 98.9865C414.379 99.525 411.664 99.9611 409.093 100.252Z" fill="#FFD700"/>
<path d="M369.162 153.391L423.297 153.426C423.361 153.342 423.148 151.57 422.434 148.662C419.109 135.107 408.514 96.8595 403.567 89.7043C400.805 85.7095 390.349 84.8056 386.027 88.8526C377.476 96.8585 370.617 132.537 368.657 147.144C368.137 151.022 369.162 153.391 369.162 153.391Z" fill="#E7E8E5"/>
<path d="M387.223 87.9506C387.294 88.899 391.527 111.027 391.664 114.648C391.802 118.271 387.522 185.675 387.522 185.675L358.96 183.423C358.96 183.423 365.863 149.985 366.099 149.484C366.336 148.981 376.618 102.444 380.176 95.9072C383.735 89.3718 387.223 87.9506 387.223 87.9506Z" fill="#FFD700"/>
<path d="M401.504 87.3386C401.504 87.3386 409.042 117.263 410.545 122.098C412.048 126.932 420.219 185.046 420.219 185.046L430.237 181.476C430.237 181.476 417.583 122.212 406.749 93.703C405.32 89.9412 401.504 87.3386 401.504 87.3386Z" fill="#FFD700"/>
<path d="M402.969 88.0358C403.716 88.0213 406.642 91.0144 406.958 91.841C407.274 92.6676 414.927 134.334 414.135 139.059C413.345 143.784 398.454 184.176 398.454 184.176L393.051 181.785C393.051 181.785 408.548 140.871 409.048 139.374C409.548 137.879 403.43 91.0038 403.241 89.833C403.053 88.6613 402.969 88.0358 402.969 88.0358Z" fill="#FABB1E"/>
<path d="M399.104 182.409L400.14 176.828L395.268 175.931C399.57 164.565 408.667 140.515 409.048 139.374C409.068 139.316 409.078 139.188 409.078 138.997C409.08 134.286 403.423 90.9583 403.241 89.833C403.053 88.6612 402.969 88.0357 402.969 88.0357C402.971 88.0357 402.973 88.0357 402.975 88.0357C403.73 88.0357 406.642 91.0163 406.958 91.841C407.259 92.626 414.19 130.324 414.193 138.1C414.193 138.503 414.174 138.826 414.135 139.059C414.077 139.411 413.94 139.958 413.737 140.672C413.006 143.25 411.415 147.988 409.523 153.418C408.758 155.612 407.944 157.921 407.119 160.245C407.008 160.556 406.898 160.867 406.787 161.179C403.667 169.941 400.448 178.747 399.104 182.409Z" fill="#D59814"/>
<path d="M387.591 88.0734C386.984 87.6403 382.871 88.4582 382.139 88.961C381.409 89.4637 362.705 120.926 360.67 125.266C358.635 129.607 341.284 170.348 341.284 170.348L347.097 171.423C347.097 171.423 364.246 129.908 364.684 128.393C365.123 126.877 385.524 90.2603 386.346 89.4008C387.168 88.5414 387.591 88.0734 387.591 88.0734Z" fill="#FABB1E"/>
<path d="M348.77 167.368L343.007 166.307C347.443 155.903 359.031 128.764 360.671 125.266C362.705 120.926 381.409 89.4637 382.14 88.961C382.727 88.5568 385.493 87.9507 386.876 87.9507C387.216 87.9507 387.472 87.9874 387.592 88.0734C387.592 88.0734 387.49 88.1856 387.289 88.4022C387.08 88.6264 386.764 88.9629 386.346 89.4009C385.97 89.7943 381.494 97.6746 376.707 106.253C371.034 116.422 364.922 127.572 364.685 128.393C364.495 129.047 361.193 137.153 357.5 146.155C356.905 147.605 356.301 149.078 355.697 150.547C353.042 157.011 350.409 163.395 348.77 167.368Z" fill="#D59814"/>
<path d="M397.793 181.893L391.077 218.05L333.447 207.437L340.163 171.28L397.793 181.893Z" fill="#FABB1E"/>
<path d="M391.077 218.05L362.007 212.697L361.073 212.525L333.447 207.437L337 188.307L394.631 198.92L395.645 193.454H395.646L391.077 218.05Z" fill="#F4AC12"/>
<path d="M394.631 198.92L337 188.307L338.016 182.841L395.645 193.454L394.631 198.92Z" fill="#D79B14"/>
<path d="M397.005 193.705L336.65 182.589L339.786 165.713L400.14 176.828L397.005 193.705Z" fill="#FABB1E"/>
<path d="M397.005 193.705L395.645 193.454L338.016 182.841L336.65 182.589L339.786 165.713L400.14 176.828L397.005 193.705Z" fill="#F4AC12"/>
<path d="M379.513 166.696L378.375 172.823L375.594 172.311L376.24 168.824L365.63 166.87L364.982 170.356L362.199 169.843L363.338 163.717L379.513 166.696Z" fill="#17282F"/>
<path d="M348.119 188.87L344.186 188.145L345.683 180.085L349.616 180.81L348.119 188.87Z" fill="#17282F"/>
<path d="M387.972 196.21L384.039 195.485L385.536 187.424L389.47 188.149L387.972 196.21Z" fill="#17282F"/>
<path d="M376.395 97.1719C371.089 102.544 350.679 127.238 349.809 133.311C348.486 142.535 362.925 172.028 366.756 178.434C368.426 181.226 389.897 167.606 388.329 164.503C387.272 162.41 372.478 139.986 372.182 137.406C371.886 134.825 380.447 112.827 385.996 101.63C391.281 90.9651 387.641 85.786 376.395 97.1719Z" fill="#BE5253"/>
<path d="M407.403 190.423C405.954 192.783 403.162 192.09 403.162 192.09C403.162 192.09 403.247 194.297 401.819 195.873C400.185 197.678 396.626 195.918 396.626 195.918C396.626 195.918 396.247 198.169 394.571 199.683C392.832 201.254 388.986 199.988 388.986 199.988C388.986 199.988 387.475 201.892 385.084 202.166C380.997 202.634 377.078 197.741 374.557 194.656C372.034 191.571 367.781 180.468 366.756 178.434L386.502 162.145C386.502 162.145 401.766 172.776 404.214 176.822C406.277 180.231 409.032 187.774 407.403 190.423Z" fill="#BE5253"/>
<path d="M403.366 191.693C402.046 187.544 399.567 184.011 397.293 180.344L397.167 180.423C399.47 184.044 401.023 188.074 403.177 191.779C403.236 191.881 403.402 191.805 403.366 191.693Z" fill="#17282F"/>
<path d="M396.831 195.642C396.504 194.713 395.871 193.893 395.315 193.089C394.716 192.223 394.102 191.368 393.475 190.522C392.219 188.828 390.925 187.163 389.583 185.537L389.456 185.617C390.705 187.307 391.927 189.016 393.103 190.756C393.691 191.627 394.272 192.503 394.847 193.383C395.382 194.202 395.878 195.109 396.587 195.795C396.692 195.895 396.881 195.782 396.831 195.642Z" fill="#17282F"/>
<path d="M388.935 199.914C388.684 199.095 387.964 198.358 387.446 197.689C386.859 196.929 386.274 196.166 385.694 195.4C384.536 193.868 383.378 192.336 382.273 190.765L382.146 190.844C383.26 192.446 384.353 194.063 385.481 195.656C386.035 196.438 386.594 197.217 387.157 197.992C387.634 198.652 388.158 199.531 388.86 199.976L388.935 199.914Z" fill="#17282F"/>
<path d="M388.328 161.283L364.697 178.925C364.697 178.925 348.13 148.877 349.043 133.683C349.42 127.419 368.461 104.647 376.985 96C385.419 87.443 393.888 85.6303 386.401 102.324C378.914 119.017 372.821 134.125 373.391 135.229C373.96 136.333 388.328 161.283 388.328 161.283Z" fill="#FFD700"/>
<path d="M383.831 157.873C382.064 158.816 380.412 160.04 378.752 161.157C377.02 162.321 375.326 163.539 373.627 164.749C371.93 165.958 365.295 171.021 363.641 172.285L363.727 172.401C365.462 171.24 372.338 166.635 373.998 165.441C375.66 164.246 377.331 163.062 378.96 161.823C380.607 160.57 382.362 159.363 383.874 157.948L383.831 157.873Z" fill="#17282F"/>
<path d="M366.24 177.773L364.745 178.988L364.687 179.036L364.628 178.963C363.806 177.939 363.141 176.825 362.549 175.674C361.968 174.519 361.446 173.326 361.15 172.038C361.941 173.095 362.583 174.207 363.19 175.344C363.79 176.484 364.344 177.648 364.766 178.887L364.65 178.862L366.24 177.773Z" fill="#17282F"/>
<path d="M386.849 162.388L388.315 161.265L388.31 161.295C385.641 157.174 383.06 153 380.514 148.803C379.234 146.709 378.004 144.585 376.771 142.461C375.559 140.319 374.306 138.227 373.257 135.951C373.199 135.788 373.131 135.67 373.084 135.472C373.019 135.304 373.017 135.042 373.043 134.885C373.09 134.544 373.168 134.243 373.249 133.938C373.415 133.335 373.606 132.748 373.804 132.163C374.202 130.996 374.63 129.844 375.067 128.696C375.946 126.403 376.846 124.12 377.804 121.861C379.696 117.333 381.653 112.834 383.715 108.382L378.318 122.067C377.442 124.355 376.533 126.631 375.685 128.927C375.26 130.074 374.845 131.225 374.462 132.381C374.271 132.959 374.088 133.54 373.934 134.12C373.86 134.408 373.789 134.702 373.756 134.968C373.742 135.115 373.736 135.166 373.781 135.288C373.801 135.39 373.88 135.546 373.926 135.672C374.92 137.854 376.163 140 377.35 142.133L381.008 148.514L388.348 161.271L388.359 161.29L388.343 161.302L386.849 162.388Z" fill="#17282F"/>
<path d="M381.656 113.245C382.034 112.782 382.422 112.346 382.768 111.873C383.136 111.416 383.444 110.925 383.775 110.427C383.627 111.01 383.315 111.537 382.96 112.019C382.585 112.486 382.17 112.928 381.656 113.245Z" fill="#17282F"/>
<path d="M400.169 96.6053C396.741 97.2375 390.453 91.3334 388.361 87.0418C388.219 86.7469 388.809 83.748 389.353 80.0713C389.674 77.838 389.979 75.3446 390.091 73.0485L404.379 77.2521C404.379 77.2521 402.721 81.9952 402.549 85.9986C402.537 86.3331 402.556 86.6454 402.601 86.9451L402.615 87.1018C402.82 88.9058 403.483 95.9914 400.169 96.6053Z" fill="#BE5253"/>
<path d="M404.381 77.254C404.381 77.254 403.096 80.9288 402.668 84.5378C395.99 88.6012 388.779 83.6948 388.779 83.6948C388.95 82.6439 389.15 81.4025 389.35 80.0664C389.674 77.8409 389.978 75.3408 390.092 73.0485L404.381 77.254Z" fill="#17282F"/>
<path d="M406.451 56.5996C408.302 61.7352 406.27 76.9273 402.71 80.4648C397.548 85.5926 388.733 86.484 384.265 80.224C379.934 74.1555 382.934 54.4021 386.944 51.1508C392.853 46.3613 403.716 49.0132 406.451 56.5996Z" fill="#BE5253"/>
<path d="M392.063 66.7547L392.131 66.8552C391.966 67.8752 391.95 69.0711 392.837 69.5294L392.821 69.5854C391.706 69.2819 391.744 67.6944 392.063 66.7547Z" fill="#17282F"/>
<path d="M393.119 65.8034C394.789 65.8895 394.493 69.2085 392.946 69.1282C391.424 69.0499 391.719 65.7309 393.119 65.8034Z" fill="#17282F"/>
<path d="M386.331 66.1553L386.243 66.2395C386.184 67.2701 385.943 68.4408 384.978 68.6999L384.981 68.7589C386.136 68.6999 386.441 67.1415 386.331 66.1553Z" fill="#17282F"/>
<path d="M385.504 65.0001C383.855 64.7275 383.429 68.0339 384.958 68.2853C386.462 68.5337 386.888 65.2283 385.504 65.0001Z" fill="#17282F"/>
<path d="M394.57 64.4015C394.126 64.2478 393.743 64.0312 393.32 63.834C392.842 63.6117 392.439 63.4831 392.154 63.0142C392.002 62.7619 392.112 62.3442 392.344 62.1741C392.883 61.7777 393.536 61.9053 394.122 62.1499C394.758 62.4158 395.179 62.7831 395.502 63.3874C395.817 63.9733 395.156 64.6036 394.57 64.4015Z" fill="#17282F"/>
<path d="M384.364 63.2153C384.833 63.1805 385.259 63.0713 385.719 62.9891C386.239 62.8973 386.661 62.877 387.057 62.497C387.27 62.293 387.273 61.8618 387.093 61.6375C386.676 61.1155 386.012 61.071 385.382 61.1561C384.699 61.2489 384.196 61.4944 383.726 61.9952C383.271 62.4806 383.745 63.2598 384.364 63.2153Z" fill="#17282F"/>
<path d="M392.448 76.1896C392.179 76.4081 391.902 76.7184 391.526 76.7165C391.164 76.7155 390.756 76.5164 390.438 76.3598L390.389 76.4091C390.622 76.8267 391.163 77.1245 391.65 77.0829C392.125 77.0433 392.392 76.6604 392.543 76.2447L392.448 76.1896Z" fill="#17282F"/>
<path d="M391.636 73.0156C390.979 73.8567 390.086 74.2696 389.151 74.3662C388.733 74.4117 388.3 74.3875 387.881 74.3121L387.642 74.2628L387.419 74.2086C387.299 74.1796 387.242 74.0752 387.232 73.9592L387.233 73.9515L387.252 73.848L387.253 73.8403L387.262 73.7494C387.311 72.9566 387.496 71.7588 387.496 71.7588C387.192 71.8787 385.651 72.4114 385.712 71.9995C386.222 68.5935 386.79 64.8057 388.021 61.5234C388.056 61.4132 388.226 61.4548 388.207 61.5669C387.846 64.8598 386.907 68.0666 386.491 71.3692C386.981 71.2319 387.781 70.9689 388.196 71.0134C388.306 71.0559 387.798 73.3211 387.805 73.6798L387.808 73.7175C389.129 74.0056 390.172 73.6924 391.548 72.9141L391.636 73.0156Z" fill="#17282F"/>
<path d="M388.346 74.1971C388.346 74.1971 389.019 75.1426 389.96 75.4984C390.307 75.6308 390.683 75.6888 391.08 75.5921C391.895 75.3968 391.93 74.6563 391.796 74.0192C391.686 73.4961 391.453 73.0417 391.453 73.0417C391.453 73.0417 390.246 74.1207 388.346 74.1971Z" fill="#17282F"/>
<path d="M389.96 75.4984C390.307 75.6308 390.682 75.6888 391.079 75.5921C391.894 75.3968 391.93 74.6563 391.795 74.0192C390.924 74.0897 390.051 74.6592 389.96 75.4984Z" fill="#F576B7"/>
<path d="M407.475 69.656C403.484 70.0428 401.27 65.3519 402.103 61.5089C402.103 61.5089 391.511 63.196 390.773 54.7134C390.773 54.7134 388.324 58.6231 383.506 58.8783L382.863 61.8763C381.764 61.5911 380.52 58.537 383.122 56.0456C383.122 56.0456 383.192 51.8053 386.259 49.1795C389.326 46.5537 392.487 48.1421 392.487 48.1421C392.487 48.1421 394.924 46.0026 398.854 46.398C402.783 46.7915 404.49 50.3048 404.49 50.3048C404.49 50.3048 409.783 51.1662 410.78 54.8661C411.777 58.566 409.911 61.1145 409.911 61.1145C409.911 61.1145 411.271 62.5415 410.687 65.7377C410.31 67.7931 408.672 69.541 407.475 69.656Z" fill="#17282F"/>
<path d="M390.988 53.9525C390.937 54.6486 390.928 55.3447 391.021 56.0282C391.078 56.7156 391.24 57.3846 391.46 58.0256C391.924 59.2989 392.805 60.3991 394.004 61.0091C395.171 61.711 396.59 61.7884 397.948 61.8841C398.636 61.8444 399.332 61.8541 400.024 61.7758C400.713 61.6878 401.402 61.5834 402.103 61.509C401.428 61.6917 400.742 61.8444 400.057 62.0136C399.365 62.1412 398.657 62.176 397.953 62.2611C396.548 62.2418 395.063 62.1635 393.77 61.4403C392.485 60.7452 391.509 59.5193 391.103 58.1436C390.7 56.7688 390.685 55.3157 390.988 53.9525Z" fill="#17282F"/>
<path d="M385.642 59.0098C386.813 58.5496 387.903 57.9772 388.819 57.1951C389.288 56.8171 389.677 56.3579 390.028 55.8696C390.395 55.3843 390.62 54.8158 390.878 54.2377C390.82 54.8603 390.675 55.5013 390.353 56.064C390.055 56.6373 389.636 57.1526 389.138 57.5683C388.64 57.9811 388.086 58.3262 387.49 58.5631C386.897 58.8029 386.277 58.9779 385.642 59.0098Z" fill="#17282F"/>
<path d="M390.08 66.7074C389.507 68.7561 390.715 70.8869 392.772 71.4573C394.828 72.0296 396.968 70.824 397.542 68.7764C398.114 66.7278 396.906 64.5969 394.849 64.0265C394.531 63.9386 394.212 63.8931 393.896 63.8864C392.168 63.8477 390.564 64.975 390.08 66.7074ZM392.612 72.0306C390.237 71.3722 388.843 68.9127 389.503 66.5479H389.504C390.165 64.1832 392.634 62.7949 395.01 63.4532C397.384 64.1116 398.778 66.5711 398.118 68.9359C397.559 70.9362 395.705 72.2375 393.711 72.193C393.347 72.1853 392.978 72.1321 392.612 72.0306Z" fill="#FABB1E"/>
<path d="M382.389 63.2927C381.756 63.9462 381.327 64.8763 381.181 65.9136C380.886 68.0193 381.857 69.9016 383.348 70.1095C384.844 70.3203 386.294 68.7743 386.591 66.6677C386.736 65.6304 386.58 64.6191 386.153 63.8176C385.74 63.0481 385.127 62.5705 384.423 62.4719L384.197 62.4535C383.565 62.4399 382.931 62.7319 382.389 63.2927ZM383.265 70.6992C381.448 70.4459 380.248 68.262 380.589 65.8305C380.753 64.6703 381.238 63.6223 381.957 62.8799C382.702 62.1113 383.604 61.7545 384.505 61.8821C385.404 62.0078 386.177 62.5956 386.679 63.5382C387.167 64.449 387.345 65.5898 387.182 66.7509C386.858 69.0509 385.267 70.7611 383.558 70.7234C383.46 70.7205 383.363 70.7128 383.265 70.6992Z" fill="#FABB1E"/>
<path d="M389.58 67.0786L390.024 66.6803C389.432 66.0258 387.985 65.0542 386.742 66.0548L387.118 66.5179C388.23 65.6188 389.525 67.0196 389.58 67.0786Z" fill="#FABB1E"/>
<path d="M408.252 71.0029L408.816 70.8067C408.723 70.5437 407.875 68.237 406.583 67.8386C405.375 67.4703 398.233 67.0642 397.891 67.0497L397.865 67.6433C400.17 67.7468 405.474 68.12 406.406 68.4071C407.259 68.6701 408.026 70.3707 408.252 71.0029Z" fill="#FABB1E"/>
<path d="M402.883 69.0276C402.883 69.0276 406.167 64.0574 408.423 65.2108C410.678 66.3632 408.305 73.5 405.725 74.5403C403.145 75.5805 402.132 73.2216 402.132 73.2216L402.883 69.0276Z" fill="#BE5253"/>
<path d="M407.691 67.2392L407.707 67.3088C405.899 68.0977 404.985 69.8128 404.361 71.582C404.885 70.8927 405.615 70.5031 406.54 71.1219L406.493 71.2205C405.74 71.0822 405.203 71.2263 404.714 71.8382C404.368 72.2714 404.139 72.8128 403.896 73.3077C403.814 73.4731 403.517 73.3948 403.573 73.2053L403.588 73.1627C403.475 70.8434 405.195 67.5438 407.691 67.2392Z" fill="#17282F"/>
<path d="M402.684 87.5707L399.191 96.1103L388.564 85.2311L385.521 88.6902C385.521 88.6902 395.883 105.943 395.953 105.166L399.531 97.808L404.618 102.964L404.267 90.0795L402.684 87.5707Z" fill="#E7E8E5"/>
<path d="M404.806 96.585C404.677 94.46 404.606 92.3157 404.378 90.1985C404.37 90.124 404.252 90.0892 404.233 90.1781C403.795 92.2277 404.334 100.353 404.316 102.301L404.293 102.278C404.081 102.055 399.577 97.7394 399.531 97.808C398.757 98.975 396.132 104.334 395.952 104.821C394.313 102.081 388.031 92.1166 386.088 89.5236C386.033 89.4492 385.916 89.5101 385.96 89.5971C387.405 92.4897 395.717 105.906 395.846 105.869C395.934 105.937 399.196 99.3375 399.588 98.0894C400.349 99.0291 404.894 103.896 404.911 103.58C405.027 101.449 404.936 98.7139 404.806 96.585Z" fill="#17282F"/>
<path d="M96.4384 46.0394C96.4384 64.7342 81.2182 79.8885 62.4433 79.8885C43.6685 79.8885 28.4482 64.7342 28.4482 46.0394C28.4482 27.3456 43.6685 12.1912 62.4433 12.1912C81.2182 12.1912 96.4384 27.3456 96.4384 46.0394Z" fill="#FFD700"/>
<path d="M83.7217 72.4395C91.3828 66.3091 96.3184 56.9409 96.4356 46.4213C96.4371 46.545 96.4379 46.6697 96.4379 46.7935C96.4379 57.2444 91.453 66.5353 83.7217 72.4395Z" fill="#E0E1DE"/>
<path d="M64.0002 79.0919C46.0856 79.0919 31.5625 64.6317 31.5625 46.7935C31.5625 28.9553 46.0856 14.495 64.0002 14.495C81.7904 14.495 96.2358 28.7542 96.436 46.4213C96.3188 56.9409 91.3832 66.309 83.7221 72.4394C78.2571 76.6121 71.4193 79.0919 64.0002 79.0919ZM54.457 75.5303C57.458 76.5174 60.6667 77.052 63.9998 77.052C80.7838 77.052 94.3898 63.5054 94.3898 46.7935C94.3898 30.0816 80.7838 16.535 63.9998 16.535C47.2162 16.535 33.6102 30.0816 33.6102 46.7935C33.6102 53.2303 35.6299 59.1993 39.0714 64.1038C39.0742 64.1077 39.0768 64.1125 39.0794 64.1154C39.0847 64.1232 39.0893 64.1299 39.0946 64.1377C40.1828 65.6845 41.4132 67.125 42.7664 68.4408C42.7691 68.4437 42.7718 68.4456 42.7744 68.4485C42.782 68.4563 42.7893 68.4631 42.7968 68.4698C42.8036 68.4766 42.8108 68.4843 42.8176 68.4911C42.8218 68.494 42.8253 68.4979 42.8291 68.5017C45.9968 71.5645 49.8321 73.9467 54.0979 75.4094C54.1048 75.4123 54.1112 75.4143 54.118 75.4172C54.1199 75.4172 54.1211 75.4172 54.1225 75.4181C54.2337 75.4568 54.3455 75.4935 54.457 75.5303Z" fill="#F4AC12"/>
<path d="M94.39 46.7935C94.39 63.5054 80.784 77.052 64 77.052C47.2164 77.052 33.6104 63.5054 33.6104 46.7935C33.6104 30.0816 47.2164 16.535 64 16.535C80.784 16.535 94.39 30.0816 94.39 46.7935Z" fill="white"/>
<path d="M42.8289 68.5017C42.8251 68.4978 42.8216 68.494 42.8175 68.4911C42.8216 68.495 42.8247 68.4978 42.8289 68.5017ZM42.7967 68.4698C42.7891 68.4631 42.7818 68.4563 42.7742 68.4485C42.7814 68.4563 42.7891 68.4631 42.7967 68.4698ZM42.7663 68.4408C41.4131 67.125 40.1827 65.6845 39.0945 64.1376C40.183 65.6835 41.4134 67.125 42.7663 68.4408ZM39.0793 64.1154C39.0766 64.1125 39.074 64.1077 39.0713 64.1038C39.074 64.1077 39.0766 64.1115 39.0793 64.1154Z" fill="#ECC96C"/>
<path d="M44.4056 69.9238C43.8632 69.4675 43.3372 68.9938 42.8286 68.5017C42.8244 68.4978 42.8213 68.4949 42.8171 68.4911C42.8103 68.4843 42.8031 68.4775 42.7963 68.4698C42.7888 68.463 42.7811 68.4562 42.7739 68.4485C42.7713 68.4456 42.7686 68.4437 42.766 68.4408C41.4131 67.125 40.1827 65.6835 39.0942 64.1376C39.0892 64.1299 39.0839 64.1231 39.0789 64.1154C39.0763 64.1115 39.0737 64.1076 39.071 64.1038C37.9115 62.4515 36.9141 60.6775 36.1016 58.8058L78.145 20.0076C85.9742 24.1116 91.781 31.523 93.7005 40.3711C79.8624 48.7202 57.118 62.4158 44.4056 69.9238Z" fill="#F3F2F1"/>
<path d="M54.4565 75.5303C54.345 75.4935 54.2335 75.4568 54.1223 75.4181C54.2335 75.4568 54.345 75.4935 54.4568 75.5303H54.4565ZM54.1178 75.4172C54.111 75.4143 54.1046 75.4123 54.0977 75.4094C54.1042 75.4123 54.1113 75.4143 54.1178 75.4172Z" fill="#ECC96C"/>
<path d="M54.4568 75.5303C54.3449 75.4935 54.2334 75.4568 54.1223 75.4181C54.1208 75.4181 54.1193 75.4172 54.1177 75.4172C54.1113 75.4143 54.1041 75.4123 54.0976 75.4094C52.5631 74.8825 51.0827 74.2387 49.6699 73.4826C61.1193 66.894 82.0408 54.9087 94.3672 47.8502C94.2515 51.3065 93.5495 54.6158 92.3593 57.6824L54.4568 75.5303Z" fill="#F3F2F1"/>
<path d="M64.2932 23.318H63.7061V18.7306H64.2932V23.318Z" fill="#BEBFBD"/>
<path d="M51.9572 26.6089L49.6543 22.6364L50.1633 22.3444L52.4666 26.3169L51.9572 26.6089Z" fill="#BEBFBD"/>
<path d="M43.4342 35.3091L39.4453 33.0149L39.7388 32.5092L43.7277 34.8025L43.4342 35.3091Z" fill="#BEBFBD"/>
<path d="M40.4224 47.0854H35.8164V46.5015H40.4224V47.0854Z" fill="#BEBFBD"/>
<path d="M39.7388 61.0778L39.4453 60.5721L43.4342 58.2779L43.7277 58.7845L39.7388 61.0778Z" fill="#BEBFBD"/>
<path d="M50.1633 71.2427L49.6543 70.9497L51.9572 66.9782L52.4666 67.2711L50.1633 71.2427Z" fill="#BEBFBD"/>
<path d="M64.2932 74.8564H63.7061V70.269H64.2932V74.8564Z" fill="#BEBFBD"/>
<path d="M77.8371 71.2427L75.5342 67.2711L76.0435 66.9782L78.3466 70.9497L77.8371 71.2427Z" fill="#BEBFBD"/>
<path d="M88.2614 61.0778L84.2725 58.7845L84.5656 58.2779L88.5549 60.5721L88.2614 61.0778Z" fill="#BEBFBD"/>
<path d="M92.1841 47.0854H87.5781V46.5015H92.1841V47.0854Z" fill="#BEBFBD"/>
<path d="M84.5656 35.3091L84.2725 34.8025L88.2614 32.5092L88.5549 33.0149L84.5656 35.3091Z" fill="#BEBFBD"/>
<path d="M76.0435 26.6089L75.5342 26.3169L77.8371 22.3444L78.3466 22.6364L76.0435 26.6089Z" fill="#BEBFBD"/>
<path d="M82.0716 27.8241L61.4609 46.9385L63.5246 48.9426L82.6317 28.3684L82.0716 27.8241Z" fill="#33535F"/>
<path d="M58.1611 26.9425L63.0054 48.7871L65.7699 47.9721L58.9121 26.7211L58.1611 26.9425Z" fill="#17282F"/>
<path d="M63.3038 46.1012C62.9196 46.4831 62.9196 47.1038 63.3038 47.4867C63.688 47.8685 64.3112 47.8685 64.6954 47.4857C65.0796 47.1038 65.0796 46.4831 64.6954 46.1012C64.3112 45.7184 63.6884 45.7184 63.3038 46.1012Z" fill="#FABB1E"/>
</svg>
