<svg width="12" height="12" viewBox="0 0 12 12" fill="none" xmlns="http://www.w3.org/2000/svg">
<path fill-rule="evenodd" clip-rule="evenodd" d="M5.25 0C8.1495 0 10.5 2.35051 10.5 5.25C10.5 6.43228 10.1092 7.52329 9.44972 8.40088L9.49087 8.43305L9.53033 8.46967L11.7803 10.7197C12.0732 11.0126 12.0732 11.4874 11.7803 11.7803C11.51 12.0507 11.0845 12.0715 10.7903 11.8427L10.7197 11.7803L8.46967 9.53033C8.44402 9.50468 8.42061 9.47763 8.39945 9.44943C7.52329 10.1092 6.43228 10.5 5.25 10.5C2.35051 10.5 0 8.1495 0 5.25C0 2.35051 2.35051 0 5.25 0ZM5.25 1.5C3.17893 1.5 1.5 3.17893 1.5 5.25C1.5 7.32107 3.17893 9 5.25 9C7.32107 9 9 7.32107 9 5.25C9 3.17893 7.32107 1.5 5.25 1.5Z" fill="white"/>
</svg>
